<?xml version="1.0" encoding="UTF-8" standalone="no"?>
<svg
   width="16"
   height="16"
   fill="#000000"
   class="bi bi-stop"
   viewBox="0 0 16 16"
   version="1.1"
   id="svg1"
   sodipodi:docname="stop.svg"
   inkscape:version="1.4.2 (ebf0e940d0, 2025-05-08)"
   xmlns:inkscape="http://www.inkscape.org/namespaces/inkscape"
   xmlns:sodipodi="http://sodipodi.sourceforge.net/DTD/sodipodi-0.dtd"
   xmlns="http://www.w3.org/2000/svg"
   xmlns:svg="http://www.w3.org/2000/svg">
  <defs
     id="defs1" />
  <sodipodi:namedview
     id="namedview1"
     pagecolor="#ffffff"
     bordercolor="#000000"
     borderopacity="0.25"
     inkscape:showpageshadow="2"
     inkscape:pageopacity="0.0"
     inkscape:pagecheckerboard="0"
     inkscape:deskcolor="#d1d1d1"
     inkscape:zoom="72.875"
     inkscape:cx="8"
     inkscape:cy="8"
     inkscape:window-width="2560"
     inkscape:window-height="1371"
     inkscape:window-x="0"
     inkscape:window-y="0"
     inkscape:window-maximized="1"
     inkscape:current-layer="svg1" />
  <path
     d="M 2,4 A 2,2 0 0 1 4,2 h 8 a 2,2 0 0 1 2,2 v 8 a 2,2 0 0 1 -2,2 H 4 A 2,2 0 0 1 2,12 Z M 4,3.3333333 A 0.66666667,0.66666667 0 0 0 3.3333333,4 v 8 A 0.66666667,0.66666667 0 0 0 4,12.666667 h 8 A 0.66666667,0.66666667 0 0 0 12.666667,12 V 4 A 0.66666667,0.66666667 0 0 0 12,3.3333333 Z"
     id="path1"
     style="stroke-width:1.33333" />
</svg>
