<?xml version="1.0" encoding="UTF-8" standalone="no"?>
<svg
   width="15"
   height="15"
   viewBox="0 0 15 15"
   fill="#fff"
   version="1.1"
   id="svg1"
   sodipodi:docname="warning.svg"
   inkscape:version="1.4.2 (ebf0e940d0, 2025-05-08)"
   xmlns:inkscape="http://www.inkscape.org/namespaces/inkscape"
   xmlns:sodipodi="http://sodipodi.sourceforge.net/DTD/sodipodi-0.dtd"
   xmlns="http://www.w3.org/2000/svg"
   xmlns:svg="http://www.w3.org/2000/svg">
  <defs
     id="defs1" />
  <sodipodi:namedview
     id="namedview1"
     pagecolor="#ffffff"
     bordercolor="#000000"
     borderopacity="0.25"
     inkscape:showpageshadow="2"
     inkscape:pageopacity="0.0"
     inkscape:pagecheckerboard="0"
     inkscape:deskcolor="#d1d1d1"
     inkscape:zoom="74.933333"
     inkscape:cx="7.4933274"
     inkscape:cy="7.5"
     inkscape:window-width="2560"
     inkscape:window-height="1371"
     inkscape:window-x="0"
     inkscape:window-y="0"
     inkscape:window-maximized="1"
     inkscape:current-layer="svg1" />
  <path
     d="M8.4449 0.608765C8.0183 -0.107015 6.9817 -0.107015 6.55509 0.608766L0.161178 11.3368C-0.275824 12.07 0.252503 13 1.10608 13H13.8939C14.7475 13 15.2758 12.07 14.8388 11.3368L8.4449 0.608765ZM7.4141 1.12073C7.45288 1.05566 7.54712 1.05566 7.5859 1.12073L13.9798 11.8488C14.0196 11.9154 13.9715 12 13.8939 12H1.10608C1.02849 12 0.980454 11.9154 1.02018 11.8488L7.4141 1.12073ZM6.8269 4.48611C6.81221 4.10423 7.11783 3.78663 7.5 3.78663C7.88217 3.78663 8.18778 4.10423 8.1731 4.48612L8.01921 8.48701C8.00848 8.766 7.7792 8.98664 7.5 8.98664C7.2208 8.98664 6.99151 8.766 6.98078 8.48701L6.8269 4.48611ZM8.24989 10.476C8.24989 10.8902 7.9141 11.226 7.49989 11.226C7.08567 11.226 6.74989 10.8902 6.74989 10.476C6.74989 10.0618 7.08567 9.72599 7.49989 9.72599C7.9141 9.72599 8.24989 10.0618 8.24989 10.476Z"
     fill="currentColor"
     fill-rule="evenodd"
     clip-rule="evenodd"
     id="path1"
     style="fill:#fff;fill-opacity:1" />
</svg>
