<?xml version="1.0" encoding="utf-8"?>
<!-- Generator: Adobe Illustrator 19.0.0, SVG Export Plug-In . SVG Version: 6.00 Build 0)  -->
<svg version="1.1"
	 id="svg2" xmlns:sodipodi="http://sodipodi.sourceforge.net/DTD/sodipodi-0.dtd" xmlns:inkscape="http://www.inkscape.org/namespaces/inkscape" xmlns:svg="http://www.w3.org/2000/svg" xmlns:dc="http://purl.org/dc/elements/1.1/" xmlns:rdf="http://www.w3.org/1999/02/22-rdf-syntax-ns#" xmlns:cc="http://creativecommons.org/ns#" inkscape:version="0.47 r22583" sodipodi:docname="Ministarstvo kulture__tmp.svg"
	 xmlns="http://www.w3.org/2000/svg" xmlns:xlink="http://www.w3.org/1999/xlink" x="0px" y="0px" viewBox="44.3 -19.1 250 250"
	 style="enable-background:new 44.3 -19.1 250 250;" xml:space="preserve">
<style type="text/css">
	.st0{fill:#1E5CB3;}
	.st1{fill:#ED1C24;}
	.st2{fill:#231F20;}
</style>
<defs>
	
	
		<inkscape:perspective  inkscape:persp3d-origin="372.04724 : 350.78739 : 1" id="perspective10" inkscape:vp_x="0 : 526.18109 : 1" sodipodi:type="inkscape:persp3d" inkscape:vp_y="0 : 1000 : 0" inkscape:vp_z="744.09448 : 526.18109 : 1">
		</inkscape:perspective>
	
		<inkscape:perspective  inkscape:persp3d-origin="0.5 : 0.33333333 : 1" id="perspective15012" inkscape:vp_x="0 : 0.5 : 1" sodipodi:type="inkscape:persp3d" inkscape:vp_y="0 : 1000 : 0" inkscape:vp_z="1 : 0.5 : 1">
		</inkscape:perspective>
</defs>
<sodipodi:namedview  inkscape:document-units="px" inkscape:window-maximized="1" id="base" inkscape:cy="154.29555" inkscape:cx="153.21974" showgrid="false" borderopacity="1.0" bordercolor="#666666" inkscape:zoom="0.7" pagecolor="#ffffff" inkscape:pageopacity="0.0" inkscape:window-height="749" inkscape:window-x="-4" inkscape:window-y="-4" inkscape:current-layer="layer1" inkscape:pageshadow="2" inkscape:window-width="1024">
	</sodipodi:namedview>
<g id="layer1" transform="translate(-524.27682,-456.7705)" inkscape:label="Layer 1" inkscape:groupmode="layer">
	<g id="g15014" transform="matrix(0.85107107,0,0,-0.85107107,398.85363,976.25066)" inkscape:label="ink_ext_XXXXXX">
		<g id="g15016" transform="scale(0.1,0.1)">
			<path id="path15018" class="st0" d="M2421.5,4914.7h718v-553c0-203.3-42.2-363.8-127.3-481.5c-84.5-117.7-229.2-221.9-433.6-312
				l-157.1,293.4c127.8,59.7,215.7,118.8,263.5,177.4c47.9,59.1,74.3,128.4,80,208.9h-343.5V4914.7"/>
			<path id="path15020" class="st1" d="M2421.5,5326.9h718v672.9h-718V5326.9z"/>
			<path id="path15022" class="st2" d="M3620.9,5847.4v145.8h64.6c13,0,22.9-1.3,29.6-3.9c6.8-2.6,12.1-7.2,16.2-13.8
				c4-6.6,6-14,6-22c0-10.4-3.3-19-10-26.1c-6.7-7.1-17-11.6-31-13.5c5.1-2.5,9-4.9,11.6-7.3c5.6-5.2,11-11.6,16-19.4l25.4-39.7
				h-24.3l-19.3,30.3c-5.6,8.7-10.3,15.4-14,20.1c-3.6,4.6-6.9,7.9-9.8,9.7c-2.9,1.9-5.8,3.2-8.8,3.9c-2.2,0.4-5.8,0.7-10.8,0.7
				h-22.4v-64.7H3620.9L3620.9,5847.4z M3640.2,5928.9h41.5c8.8,0,15.7,0.9,20.7,2.7c5,1.8,8.8,4.8,11.3,8.8s3.9,8.3,3.9,13.1
				c0,6.9-2.5,12.6-7.5,17c-5,4.4-12.9,6.7-23.7,6.7h-46.1V5928.9L3640.2,5928.9z M3837.7,5881.5l18.5-2.3
				c-2.9-10.8-8.3-19.2-16.2-25.2c-7.9-5.9-18-8.9-30.2-8.9c-15.4,0-27.7,4.7-36.7,14.3c-9.1,9.5-13.6,22.8-13.6,40
				c0,17.8,4.6,31.6,13.7,41.4c9.2,9.8,21,14.7,35.6,14.7c14.1,0,25.7-4.8,34.6-14.4c9-9.6,13.4-23.1,13.4-40.6c0-1.1,0-2.7-0.1-4.8
				h-78.7c0.6-11.6,3.9-20.5,9.8-26.6c5.9-6.2,13.2-9.3,22.1-9.3c6.5,0,12.1,1.7,16.8,5.2C3831.3,5868.4,3835,5873.9,3837.7,5881.5z
				 M3778.9,5910.4h59c-0.8,8.9-3.1,15.5-6.8,20c-5.7,6.9-13.1,10.4-22.2,10.4c-8.2,0-15.1-2.8-20.7-8.2
				C3782.6,5927,3779.5,5919.6,3778.9,5910.4z M3878.7,5807V5953h16.3v-13.7c3.8,5.4,8.2,9.4,13,12.1c4.8,2.7,10.7,4,17.6,4
				c9,0,17-2.3,23.9-7c6.9-4.7,12.1-11.2,15.6-19.7c3.5-8.5,5.3-17.7,5.3-27.8c0-10.8-1.9-20.5-5.8-29.2
				c-3.9-8.7-9.5-15.3-16.9-19.9c-7.4-4.6-15.2-6.9-23.3-6.9c-6,0-11.3,1.3-16.1,3.8c-4.7,2.5-8.6,5.7-11.7,9.5V5807L3878.7,5807
				L3878.7,5807z M3894.9,5899.6c0-13.6,2.8-23.6,8.2-30.1c5.5-6.5,12.2-9.7,20-9.7c7.9,0,14.8,3.4,20.4,10.1
				c5.7,6.7,8.5,17.1,8.5,31.3c0,13.5-2.8,23.5-8.3,30.2c-5.5,6.7-12.1,10-19.8,10c-7.6,0-14.4-3.6-20.3-10.7
				C3897.8,5923.6,3894.9,5913.2,3894.9,5899.6L3894.9,5899.6z M4061.2,5847.4v15.5c-8.3-11.9-19.4-17.9-33.5-17.9
				c-6.2,0-12.1,1.2-17.4,3.6c-5.4,2.4-9.4,5.4-12,9c-2.6,3.6-4.5,8-5.5,13.3c-0.7,3.5-1.1,9.1-1.1,16.7v65.4h17.9v-58.6
				c0-9.4,0.4-15.6,1.1-18.9c1.2-4.7,3.5-8.4,7.2-11.1c3.7-2.7,8.2-4,13.5-4c5.4,0,10.4,1.4,15.1,4.1c4.7,2.7,8,6.5,10,11.2
				c2,4.8,3,11.6,3,20.6v56.6h17.9v-105.6L4061.2,5847.4L4061.2,5847.4z M4121.7,5847.4h-16.6v145.8h17.9v-52
				c7.6,9.5,17.2,14.2,28.9,14.2c6.5,0,12.7-1.3,18.5-3.9c5.8-2.6,10.6-6.3,14.3-11c3.7-4.8,6.7-10.5,8.8-17.2
				c2.1-6.7,3.2-13.8,3.2-21.4c0-18.1-4.5-32.1-13.4-42c-8.9-9.9-19.7-14.8-32.2-14.8c-12.5,0-22.2,5.2-29.3,15.6V5847.4
				L4121.7,5847.4z M4121.5,5901c0-12.7,1.7-21.8,5.2-27.4c5.6-9.2,13.3-13.8,22.9-13.8c7.8,0,14.6,3.4,20.3,10.2
				c5.7,6.8,8.6,16.9,8.6,30.4c0,13.8-2.7,24-8.2,30.5c-5.5,6.5-12.1,9.8-19.8,9.8c-7.8,0-14.6-3.4-20.3-10.2
				C4124.4,5923.7,4121.5,5913.9,4121.5,5901L4121.5,5901z M4218.1,5847.4v145.8h17.9v-145.8H4218.1z M4263.8,5972.6v20.6h17.9
				v-20.6H4263.8z M4263.8,5847.4V5953h17.9v-105.6H4263.8z M4309,5847.4v145.8h17.9v-83.1l42.4,42.9h23.1l-40.4-39.2l44.5-66.4
				h-22.1l-34.9,54l-12.6-12.2v-41.8L4309,5847.4L4309,5847.4z M4479.7,5860.5c-6.7-5.6-13-9.6-19.1-11.9
				c-6.1-2.3-12.7-3.5-19.8-3.5c-11.6,0-20.5,2.8-26.7,8.5c-6.2,5.7-9.3,12.9-9.3,21.7c0,5.2,1.1,9.9,3.5,14.2
				c2.3,4.3,5.4,7.7,9.2,10.3c3.8,2.6,8.1,4.5,12.9,5.9c3.5,0.9,8.8,1.8,15.9,2.7c14.5,1.7,25.1,3.8,31.9,6.2c0.1,2.4,0.1,4,0.1,4.7
				c0,7.3-1.7,12.5-5.1,15.4c-4.5,4.1-11.4,6.1-20.4,6.1c-8.4,0-14.6-1.5-18.7-4.4c-4-3-7-8.2-8.9-15.7l-17.5,2.4
				c1.6,7.5,4.2,13.5,7.8,18.1c3.6,4.6,8.9,8.2,15.8,10.7c6.9,2.5,14.9,3.7,24,3.7c9,0,16.3-1.1,22-3.2c5.6-2.1,9.8-4.8,12.5-8
				c2.7-3.2,4.5-7.3,5.6-12.2c0.6-3.1,0.9-8.6,0.9-16.5v-23.9c0-16.7,0.4-27.2,1.2-31.6c0.7-4.4,2.3-8.7,4.5-12.7h-18.7
				C4481.4,5851.1,4480.2,5855.5,4479.7,5860.5L4479.7,5860.5z M4478.2,5900.5c-6.5-2.7-16.3-4.9-29.2-6.8
				c-7.4-1.1-12.6-2.2-15.6-3.6c-3.1-1.3-5.4-3.3-7.1-5.8c-1.7-2.5-2.5-5.4-2.5-8.5c0-4.8,1.8-8.8,5.4-11.9
				c3.6-3.2,8.9-4.7,15.9-4.7c6.9,0,13,1.5,18.4,4.5c5.4,3,9.3,7.2,11.8,12.4c1.9,4,2.9,10,2.9,17.9V5900.5L4478.2,5900.5z
				 M3621.2,5619.9v145.8h19.3v-59.9h75.8v59.9h19.3v-145.8h-19.3v68.7h-75.8v-68.7H3621.2z M3765.2,5619.9v105.6h16.1v-16
				c4.1,7.5,7.9,12.4,11.4,14.8c3.5,2.4,7.3,3.6,11.5,3.6c6,0,12.2-1.9,18.4-5.8l-6.2-16.6c-4.3,2.6-8.7,3.9-13.1,3.9
				c-3.9,0-7.4-1.2-10.6-3.5c-3.1-2.4-5.3-5.6-6.7-9.8c-2-6.3-3-13.3-3-20.9v-55.3H3765.2L3765.2,5619.9z M3862.6,5619.9
				l-40.2,105.6h18.9l22.7-63.2c2.4-6.8,4.7-13.9,6.8-21.3c1.6,5.6,3.8,12.3,6.7,20.1l23.5,64.4h18.4l-40-105.6H3862.6z M4004,5633
				c-6.6-5.6-13-9.6-19.1-11.9c-6.1-2.3-12.7-3.5-19.8-3.5c-11.6,0-20.5,2.8-26.7,8.5c-6.2,5.7-9.3,12.9-9.3,21.7
				c0,5.2,1.1,9.9,3.5,14.2c2.3,4.3,5.4,7.7,9.2,10.3c3.8,2.6,8.1,4.5,12.9,5.9c3.5,0.9,8.8,1.8,15.9,2.7
				c14.5,1.7,25.1,3.8,31.9,6.2c0.1,2.4,0.1,4,0.1,4.7c0,7.3-1.7,12.5-5.1,15.4c-4.6,4.1-11.4,6.1-20.4,6.1
				c-8.4,0-14.6-1.5-18.7-4.4c-4-3-7-8.2-8.9-15.7l-17.5,2.4c1.6,7.5,4.2,13.5,7.8,18.1c3.6,4.6,8.9,8.2,15.8,10.7
				c6.9,2.5,14.9,3.7,24,3.7c9,0,16.3-1.1,22-3.2c5.6-2.1,9.8-4.8,12.5-8c2.7-3.2,4.5-7.3,5.6-12.2c0.6-3.1,0.9-8.6,0.9-16.5v-23.9
				c0-16.7,0.4-27.2,1.2-31.6c0.7-4.4,2.3-8.7,4.5-12.7h-18.7C4005.7,5623.6,4004.5,5628,4004,5633L4004,5633z M4002.5,5673
				c-6.5-2.7-16.3-4.9-29.2-6.8c-7.4-1.1-12.6-2.2-15.6-3.6c-3-1.3-5.4-3.3-7.1-5.8c-1.7-2.5-2.5-5.4-2.5-8.5
				c0-4.8,1.8-8.8,5.4-11.9c3.6-3.2,8.9-4.7,15.9-4.7c6.9,0,13,1.5,18.4,4.5c5.4,3,9.3,7.2,11.8,12.4c1.9,4,2.9,10,2.9,17.9
				L4002.5,5673L4002.5,5673z M4087.4,5636l2.6-15.8c-5-1-9.5-1.6-13.5-1.6c-6.5,0-11.5,1-15.1,3.1c-3.6,2-6.1,4.8-7.5,8.1
				c-1.5,3.3-2.2,10.4-2.2,21.1v60.8h-13.1v13.9h13.1v26.2l17.8,10.7v-36.9h18v-13.9h-18v-61.7c0-5.1,0.3-8.4,0.9-9.8
				c0.6-1.5,1.7-2.6,3.1-3.5c1.4-0.9,3.5-1.3,6.1-1.3C4081.5,5635.2,4084.1,5635.5,4087.4,5636L4087.4,5636z M4097.7,5651.5
				l17.7,2.8c1-7.1,3.8-12.5,8.3-16.3c4.5-3.8,10.9-5.7,19-5.7c8.2,0,14.3,1.7,18.3,5c4,3.4,6,7.3,6,11.8c0,4.1-1.8,7.2-5.3,9.6
				c-2.4,1.6-8.6,3.6-18.3,6c-13.1,3.3-22.2,6.2-27.3,8.6c-5.1,2.4-8.9,5.8-11.5,10c-2.6,4.3-3.9,9-3.9,14.2c0,4.7,1.1,9.1,3.3,13.1
				c2.1,4,5.1,7.4,8.8,10c2.8,2,6.6,3.8,11.4,5.2c4.8,1.4,10,2.1,15.5,2.1c8.3,0,15.5-1.2,21.8-3.6c6.3-2.4,10.9-5.6,13.9-9.7
				c3-4.1,5-9.5,6.1-16.4l-17.5-2.4c-0.8,5.4-3.1,9.7-6.9,12.7c-3.8,3.1-9.2,4.6-16.2,4.6c-8.2,0-14.1-1.4-17.6-4.1
				c-3.5-2.7-5.3-5.9-5.3-9.5c0-2.3,0.7-4.4,2.2-6.3c1.5-1.9,3.7-3.5,6.9-4.8c1.8-0.6,7.1-2.2,15.8-4.6c12.7-3.4,21.5-6.1,26.5-8.3
				c5-2.1,9-5.3,11.8-9.4c2.8-4.1,4.3-9.2,4.3-15.3c0-6-1.8-11.6-5.2-16.9c-3.5-5.3-8.5-9.3-15.1-12.2c-6.6-2.9-14-4.3-22.3-4.3
				c-13.7,0-24.2,2.9-31.4,8.6C4104.3,5631.8,4099.7,5640.3,4097.7,5651.5L4097.7,5651.5z M4206.8,5619.9v145.8h17.9v-83.1
				l42.4,42.9h23.1l-40.4-39.2l44.5-66.4h-22.1l-34.9,54l-12.6-12.1v-41.8H4206.8L4206.8,5619.9z M4377.5,5633
				c-6.7-5.6-13-9.6-19.1-11.9c-6.1-2.3-12.7-3.5-19.8-3.5c-11.6,0-20.5,2.8-26.7,8.5c-6.2,5.7-9.3,12.9-9.3,21.7
				c0,5.2,1.1,9.9,3.5,14.2c2.3,4.3,5.4,7.7,9.2,10.3c3.8,2.6,8.1,4.5,12.9,5.9c3.5,0.9,8.8,1.8,15.9,2.7
				c14.5,1.7,25.1,3.8,31.9,6.2c0.1,2.4,0.1,4,0.1,4.7c0,7.3-1.7,12.5-5.1,15.4c-4.5,4.1-11.4,6.1-20.4,6.1
				c-8.4,0-14.6-1.5-18.7-4.4c-4-3-7-8.2-8.9-15.7l-17.5,2.4c1.6,7.5,4.2,13.5,7.8,18.1c3.6,4.6,8.9,8.2,15.8,10.7
				c6.9,2.5,14.9,3.7,24,3.7c9,0,16.3-1.1,22-3.2c5.6-2.1,9.8-4.8,12.5-8c2.6-3.2,4.5-7.3,5.6-12.2c0.6-3.1,0.9-8.6,0.9-16.5v-23.9
				c0-16.7,0.4-27.2,1.2-31.6c0.7-4.4,2.3-8.7,4.5-12.7H4381C4379.2,5623.6,4378,5628,4377.5,5633L4377.5,5633z M4376,5673
				c-6.5-2.7-16.3-4.9-29.2-6.8c-7.4-1.1-12.6-2.2-15.6-3.6c-3.1-1.3-5.4-3.3-7.1-5.8c-1.7-2.5-2.5-5.4-2.5-8.5
				c0-4.8,1.8-8.8,5.4-11.9c3.6-3.2,8.9-4.7,15.9-4.7c6.9,0,13,1.5,18.4,4.5c5.4,3,9.3,7.2,11.8,12.4c1.9,4,2.9,10,2.9,17.9V5673
				L4376,5673z M3620,5392.4v145.8h29.1l34.5-103.2c3.2-9.6,5.5-16.8,7-21.6c1.7,5.3,4.2,13.1,7.8,23.4l34.9,101.4h26v-145.8h-18.6
				v122l-42.4-122h-17.4l-42.2,124.1v-124.1H3620L3620,5392.4z M3788.1,5517.6v20.6h17.9v-20.6H3788.1z M3788.1,5392.4V5498h17.9
				v-105.6H3788.1z M3833.2,5392.4V5498h16.1v-15c7.8,11.6,19,17.4,33.6,17.4c6.4,0,12.2-1.2,17.5-3.4c5.4-2.3,9.3-5.3,12-9
				c2.7-3.7,4.5-8.1,5.6-13.2c0.6-3.3,1-9.1,1-17.4v-64.9h-17.9v64.3c0,7.3-0.7,12.7-2.1,16.4c-1.4,3.6-3.9,6.5-7.4,8.6
				c-3.6,2.2-7.7,3.3-12.5,3.3c-7.6,0-14.2-2.4-19.8-7.3c-5.5-4.9-8.3-14-8.3-27.6v-57.7H3833.2L3833.2,5392.4z M3946.6,5517.6v20.6
				h17.9v-20.6H3946.6z M3946.6,5392.4V5498h17.9v-105.6H3946.6z M3984.6,5424l17.7,2.8c1-7.1,3.8-12.5,8.3-16.3
				c4.5-3.8,10.9-5.7,19-5.7c8.2,0,14.3,1.7,18.3,5c4,3.4,6,7.3,6,11.8c0,4.1-1.8,7.2-5.3,9.6c-2.4,1.6-8.6,3.6-18.3,6
				c-13.1,3.3-22.2,6.2-27.3,8.6c-5.1,2.4-8.9,5.8-11.5,10c-2.6,4.3-3.9,9-3.9,14.2c0,4.7,1.1,9.1,3.3,13.1c2.1,4,5.1,7.4,8.8,10
				c2.8,2,6.6,3.8,11.4,5.2c4.8,1.4,10,2.1,15.5,2.1c8.3,0,15.5-1.2,21.8-3.6c6.3-2.4,10.9-5.6,13.9-9.7c3-4.1,5-9.5,6.1-16.4
				l-17.5-2.4c-0.8,5.4-3.1,9.7-6.9,12.7c-3.8,3.1-9.2,4.6-16.2,4.6c-8.2,0-14.1-1.4-17.6-4.1c-3.5-2.7-5.3-5.9-5.3-9.5
				c0-2.3,0.7-4.4,2.2-6.3c1.5-1.9,3.7-3.5,6.9-4.8c1.8-0.6,7.1-2.2,15.8-4.5c12.7-3.4,21.5-6.1,26.5-8.3c5-2.1,9-5.3,11.8-9.4
				c2.8-4.1,4.3-9.2,4.3-15.3c0-6-1.8-11.6-5.2-16.9c-3.5-5.3-8.5-9.3-15.1-12.2c-6.5-2.9-14-4.3-22.3-4.3
				c-13.7,0-24.2,2.8-31.4,8.6C3991.1,5404.3,3986.5,5412.8,3984.6,5424L3984.6,5424z M4132.6,5408.4l2.6-15.8
				c-5-1.1-9.5-1.6-13.5-1.6c-6.5,0-11.5,1-15.1,3.1c-3.6,2-6.1,4.7-7.5,8.1c-1.5,3.3-2.2,10.4-2.2,21.1v60.8h-13.1v13.9h13.1v26.2
				l17.8,10.7V5498h18v-13.9h-18v-61.7c0-5.1,0.3-8.4,0.9-9.8c0.6-1.5,1.7-2.6,3.1-3.5c1.4-0.9,3.5-1.3,6.1-1.3
				C4126.8,5407.7,4129.4,5408,4132.6,5408.4L4132.6,5408.4z M4219,5405.5c-6.7-5.6-13-9.6-19.1-11.9c-6.1-2.3-12.7-3.5-19.8-3.5
				c-11.6,0-20.5,2.8-26.7,8.5c-6.2,5.7-9.3,12.9-9.3,21.7c0,5.2,1.2,9.9,3.5,14.2c2.3,4.3,5.4,7.7,9.2,10.3
				c3.8,2.6,8.1,4.5,12.9,5.9c3.5,0.9,8.8,1.8,15.9,2.7c14.5,1.7,25.1,3.8,31.9,6.2c0.1,2.4,0.1,4,0.1,4.7c0,7.3-1.7,12.5-5.1,15.4
				c-4.5,4.1-11.4,6.1-20.4,6.1c-8.4,0-14.6-1.5-18.7-4.4c-4-3-7-8.2-8.9-15.7l-17.5,2.4c1.6,7.5,4.2,13.5,7.8,18.1
				c3.6,4.6,8.9,8.2,15.8,10.7c6.9,2.5,14.9,3.7,24,3.7c9,0,16.3-1.1,22-3.2c5.6-2.1,9.8-4.8,12.5-8c2.6-3.2,4.5-7.3,5.6-12.2
				c0.6-3.1,0.9-8.6,0.9-16.5v-23.9c0-16.7,0.4-27.2,1.2-31.6c0.7-4.4,2.3-8.7,4.5-12.7h-18.7
				C4220.8,5396.1,4219.6,5400.5,4219,5405.5L4219,5405.5z M4217.6,5445.4c-6.5-2.7-16.3-4.9-29.2-6.8c-7.4-1.1-12.6-2.2-15.6-3.6
				c-3.1-1.3-5.4-3.3-7.1-5.8c-1.7-2.5-2.5-5.4-2.5-8.5c0-4.8,1.8-8.8,5.4-11.9c3.6-3.2,8.9-4.8,15.9-4.8c6.9,0,13,1.5,18.4,4.5
				c5.4,3,9.3,7.2,11.8,12.4c1.9,4,2.9,10,2.9,17.9V5445.4L4217.6,5445.4z M4263.2,5392.4V5498h16.1v-16c4.1,7.5,7.9,12.4,11.4,14.8
				c3.5,2.4,7.3,3.6,11.5,3.6c6,0,12.2-1.9,18.4-5.8l-6.2-16.6c-4.3,2.6-8.7,3.9-13.1,3.9c-3.9,0-7.4-1.2-10.6-3.5
				c-3.1-2.4-5.3-5.6-6.6-9.8c-2-6.3-3-13.3-3-20.9v-55.3H4263.2L4263.2,5392.4z M4324.1,5424l17.7,2.8c1-7.1,3.8-12.5,8.3-16.3
				c4.5-3.8,10.9-5.7,19-5.7c8.2,0,14.3,1.7,18.3,5c4,3.4,6,7.3,6,11.8c0,4.1-1.8,7.2-5.3,9.6c-2.4,1.6-8.6,3.6-18.3,6
				c-13.1,3.3-22.2,6.2-27.3,8.6c-5.1,2.4-8.9,5.8-11.5,10c-2.6,4.3-3.9,9-3.9,14.2c0,4.7,1.1,9.1,3.3,13.1c2.1,4,5.1,7.4,8.8,10
				c2.8,2,6.6,3.8,11.4,5.2c4.8,1.4,10,2.1,15.5,2.1c8.3,0,15.5-1.2,21.8-3.6c6.3-2.4,10.9-5.6,13.9-9.7c3-4.1,5-9.5,6.1-16.4
				l-17.5-2.4c-0.8,5.4-3.1,9.7-6.9,12.7c-3.8,3.1-9.2,4.6-16.2,4.6c-8.2,0-14.1-1.4-17.6-4.1c-3.5-2.7-5.3-5.9-5.3-9.5
				c0-2.3,0.7-4.4,2.2-6.3c1.5-1.9,3.7-3.5,6.9-4.8c1.8-0.6,7.1-2.2,15.8-4.5c12.7-3.4,21.5-6.1,26.5-8.3c5-2.1,9-5.3,11.8-9.4
				c2.8-4.1,4.3-9.2,4.3-15.3c0-6-1.8-11.6-5.2-16.9c-3.5-5.3-8.5-9.3-15.1-12.2c-6.6-2.9-14-4.3-22.3-4.3
				c-13.8,0-24.2,2.8-31.4,8.6C4330.6,5404.3,4326,5412.8,4324.1,5424L4324.1,5424z M4472.1,5408.4l2.6-15.8
				c-5-1.1-9.5-1.6-13.5-1.6c-6.5,0-11.5,1-15.1,3.1c-3.6,2-6.1,4.7-7.5,8.1c-1.5,3.3-2.2,10.4-2.2,21.1v60.8h-13.1v13.9h13.1v26.2
				l17.8,10.7V5498h18v-13.9h-18v-61.7c0-5.1,0.3-8.4,0.9-9.8c0.6-1.5,1.7-2.6,3.1-3.5c1.4-0.9,3.5-1.3,6.1-1.3
				C4466.2,5407.7,4468.9,5408,4472.1,5408.4L4472.1,5408.4z M4519,5392.4l-40.2,105.6h18.9l22.7-63.2c2.4-6.8,4.7-13.9,6.8-21.3
				c1.6,5.6,3.8,12.3,6.7,20.1l23.5,64.4h18.4l-40-105.6H4519z M4584.8,5445.2c0,19.5,5.4,34,16.3,43.4c9.1,7.8,20.1,11.7,33.2,11.7
				c14.5,0,26.4-4.8,35.6-14.3c9.2-9.5,13.8-22.6,13.8-39.4c0-13.6-2-24.3-6.1-32.1c-4.1-7.8-10-13.8-17.8-18.2
				c-7.8-4.3-16.3-6.4-25.5-6.4c-14.8,0-26.7,4.7-35.8,14.2C4589.3,5413.7,4584.8,5427.4,4584.8,5445.2L4584.8,5445.2z
				 M4603.2,5445.2c0-13.5,3-23.7,8.9-30.4c5.9-6.8,13.3-10.1,22.3-10.1c8.9,0,16.3,3.4,22.2,10.2c5.9,6.8,8.8,17.1,8.8,30.9
				c0,13.1-3,23-8.9,29.7c-5.9,6.7-13.3,10.1-22.1,10.1c-8.9,0-16.4-3.4-22.3-10C4606.1,5468.9,4603.2,5458.8,4603.2,5445.2z
				 M3618.4,5164.9v145.8h17.9v-83.1l42.4,42.9h23.1l-40.4-39.2l44.5-66.4h-22.1l-34.9,54l-12.6-12.2v-41.8H3618.4L3618.4,5164.9z
				 M3789.4,5164.9v15.5c-8.2-11.9-19.4-17.9-33.5-17.9c-6.2,0-12.1,1.2-17.4,3.6c-5.4,2.4-9.4,5.4-12,9c-2.6,3.6-4.5,8-5.5,13.3
				c-0.7,3.5-1.1,9.1-1.1,16.7v65.4h17.9V5212c0-9.4,0.4-15.7,1.1-18.9c1.2-4.7,3.5-8.4,7.2-11.1c3.7-2.7,8.2-4,13.5-4
				c5.4,0,10.4,1.4,15.1,4.1c4.7,2.7,8,6.5,10,11.2c2,4.7,3,11.6,3,20.6v56.6h17.9v-105.6L3789.4,5164.9L3789.4,5164.9z
				 M3833,5164.9v145.8h17.9v-145.8H3833z M3917.7,5180.9l2.6-15.8c-5-1.1-9.5-1.6-13.5-1.6c-6.5,0-11.5,1-15.1,3.1
				c-3.6,2-6.1,4.7-7.5,8.1c-1.5,3.3-2.2,10.4-2.2,21.1v60.8h-13.1v13.9h13.1v26.2l17.8,10.7v-36.9h18v-13.9h-18v-61.7
				c0-5.1,0.3-8.4,0.9-9.8c0.6-1.5,1.7-2.6,3.1-3.5c1.4-0.9,3.5-1.3,6.1-1.3C3911.9,5180.2,3914.5,5180.5,3917.7,5180.9z
				 M4004.5,5164.9v15.5c-8.2-11.9-19.4-17.9-33.5-17.9c-6.2,0-12,1.2-17.4,3.6c-5.4,2.4-9.4,5.4-12,9c-2.7,3.6-4.5,8-5.5,13.3
				c-0.7,3.5-1.1,9.1-1.1,16.7v65.4h17.9V5212c0-9.4,0.4-15.7,1.1-18.9c1.2-4.7,3.5-8.4,7.2-11.1c3.7-2.7,8.2-4,13.5-4
				c5.4,0,10.4,1.4,15.1,4.1c4.7,2.7,8,6.5,10,11.2c2,4.7,3,11.6,3,20.6v56.6h17.9v-105.6L4004.5,5164.9L4004.5,5164.9z
				 M4048.3,5164.9v105.6h16.1v-16c4.1,7.5,7.9,12.4,11.4,14.8c3.5,2.4,7.3,3.6,11.5,3.6c6,0,12.2-1.9,18.4-5.8l-6.2-16.6
				c-4.3,2.6-8.7,3.9-13.1,3.9c-3.9,0-7.4-1.2-10.6-3.5c-3.1-2.4-5.3-5.6-6.6-9.8c-2-6.3-3-13.3-3-20.9v-55.3H4048.3L4048.3,5164.9z
				 M4188.6,5198.9l18.5-2.3c-2.9-10.8-8.3-19.2-16.2-25.2c-7.9-5.9-18-8.9-30.2-8.9c-15.4,0-27.7,4.8-36.7,14.3
				c-9.1,9.5-13.6,22.8-13.6,40c0,17.8,4.6,31.6,13.7,41.4c9.2,9.8,21,14.7,35.6,14.7c14.1,0,25.7-4.8,34.6-14.4
				c9-9.6,13.4-23.1,13.4-40.6c0-1.1,0-2.7-0.1-4.8h-78.7c0.6-11.6,3.9-20.5,9.8-26.6c5.9-6.2,13.2-9.3,22.1-9.3
				c6.5,0,12.1,1.7,16.8,5.2C4182.2,5185.9,4185.9,5191.4,4188.6,5198.9L4188.6,5198.9z M4129.8,5227.9h59c-0.8,8.9-3.1,15.5-6.8,20
				c-5.7,6.9-13.1,10.4-22.2,10.4c-8.2,0-15.1-2.7-20.7-8.2C4133.5,5244.4,4130.5,5237.1,4129.8,5227.9"/>
			<path id="path15024" class="st2" d="M3594.5,4723.8l30.5,145.8h61.1c12.1,0,21.2-1,27.5-3c6.3-2,11.1-5.8,14.7-11.4
				c3.6-5.6,5.3-12.6,5.3-21.1c0-11.9-3.9-21.7-11.6-29.5c-7.7-7.8-20.3-12.9-37.6-15.2c5.3-3.9,9.3-7.8,12-11.5
				c6.1-8.6,11-17.4,14.7-26.5l11.1-27.5h-21.8l-10.4,27.2c-3.8,9.8-8.1,18.3-12.9,25.5c-3.3,5-6.7,8.2-10.2,9.8
				c-3.5,1.6-9.1,2.3-16.8,2.3h-22.7l-13.5-64.7L3594.5,4723.8L3594.5,4723.8z M3630.8,4804.3h26.9c12.5,0,20.6,0.2,24.3,0.5
				c7.4,0.7,13.4,2.4,18.1,5c4.7,2.6,8.3,6.1,10.9,10.5s3.9,9.1,3.9,14.1c0,4.2-0.9,7.9-2.9,11.1c-1.9,3.2-4.4,5.3-7.6,6.4
				c-3.1,1.2-8.4,1.7-15.9,1.7h-47.6L3630.8,4804.3L3630.8,4804.3z M3816.4,4759.7l17.5-1.8c-2.5-8.7-8.3-16.9-17.3-24.8
				c-9.1-7.8-19.9-11.7-32.4-11.7c-7.8,0-15,1.8-21.5,5.4c-6.5,3.6-11.5,8.9-14.9,15.8c-3.4,6.9-5.1,14.7-5.1,23.6
				c0,11.5,2.6,22.7,8,33.6c5.4,10.8,12.3,18.9,20.7,24.2c8.5,5.3,17.7,7.9,27.6,7.9c12.6,0,22.6-3.9,30.2-11.7
				c7.5-7.8,11.3-18.5,11.3-32c0-5.2-0.4-10.5-1.4-15.9h-77.8c-0.2-2.1-0.4-3.9-0.4-5.6c0-9.9,2.3-17.4,6.8-22.6
				c4.5-5.2,10.1-7.8,16.7-7.8c6.2,0,12.2,2,18.2,6.1C3808.4,4746.2,3813.1,4752,3816.4,4759.7L3816.4,4759.7z M3764,4785.8h59.3
				c0.1,1.9,0.1,3.2,0.1,4c0,9-2.2,16-6.8,20.7c-4.5,4.8-10.3,7.2-17.4,7.2c-7.7,0-14.7-2.7-21-8
				C3771.9,4804.5,3767.2,4796.5,3764,4785.8z M3843.2,4683.3l30.5,146.1h16.6l-3.1-14.7c6.2,6.4,11.7,10.9,16.6,13.4
				c4.9,2.5,10,3.7,15.5,3.7c10.1,0,18.4-3.7,25-11c6.6-7.3,9.9-17.8,9.9-31.5c0-11-1.8-21-5.5-30.1c-3.7-9-8.1-16.3-13.4-21.8
				c-5.3-5.5-10.7-9.5-16.1-12.1c-5.4-2.6-11-3.9-16.7-3.9c-12.7,0-22.5,6.4-29.5,19.3l-11.9-57.4L3843.2,4683.3L3843.2,4683.3z
				 M3878.8,4766.9c0-7.9,0.6-13.3,1.7-16.4c1.7-4.3,4.4-7.8,8.1-10.5c3.8-2.7,8.2-4,13.1-4c10.4,0,18.7,5.8,25,17.4
				c6.4,11.6,9.6,23.5,9.6,35.7c0,8.9-2.1,15.9-6.4,20.7c-4.3,4.9-9.6,7.3-16,7.3c-4.6,0-8.8-1.2-12.7-3.6c-3.9-2.4-7.5-6-10.9-10.8
				c-3.4-4.8-6.1-10.7-8.3-17.7C3879.9,4778.2,3878.8,4772.1,3878.8,4766.9z M4037.4,4742.9c-12.7-14.3-25.6-21.5-38.9-21.5
				c-8.1,0-14.7,2.3-19.8,7c-5,4.7-7.5,10.4-7.5,17.2c0,4.4,1.1,12.1,3.4,22.8l12.7,61h18l-14.1-67.5c-1.2-5.6-1.8-10-1.8-13.1
				c0-4,1.2-7.1,3.6-9.3c2.4-2.2,6-3.3,10.7-3.3c5,0,9.9,1.2,14.8,3.7c4.8,2.4,9,5.8,12.4,9.9c3.5,4.2,6.3,9.1,8.5,14.8
				c1.5,3.7,3.2,10,5.1,19.2l9.5,45.6h18l-22.1-105.6h-16.6L4037.4,4742.9z M4078.6,4723.8l30.4,145.8h18l-10.8-52.1
				c5.7,5.2,10.9,8.9,15.5,11.1c4.6,2.2,9.5,3.3,14.5,3.3c9.9,0,18.1-3.7,24.7-11.1c6.6-7.3,9.9-18.1,9.9-32.1
				c0-9.3-1.3-17.9-4-25.7c-2.7-7.7-5.9-14.3-9.8-19.5c-3.9-5.3-8-9.5-12.1-12.6c-4.2-3.2-8.5-5.5-12.8-7.1
				c-4.4-1.6-8.6-2.3-12.6-2.3c-7,0-13.1,1.8-18.4,5.5c-5.3,3.7-9.4,9.3-12.4,16.9l-4.2-20H4078.6L4078.6,4723.8z M4105.2,4767.1
				l-0.1-3.4c0-9,2.2-15.9,6.5-20.6c4.3-4.7,9.7-7.1,16.1-7.1c6.3,0,12.1,2.2,17.4,6.6c5.3,4.4,9.6,11.3,13,20.6
				c3.4,9.3,5.1,18,5.1,25.9c0,8.9-2.1,15.8-6.4,20.7c-4.2,4.9-9.5,7.4-15.9,7.4c-6.5,0-12.5-2.5-17.9-7.5c-5.4-5-10-12.7-13.6-23.1
				C4106.6,4778.8,4105.2,4772.4,4105.2,4767.1L4105.2,4767.1z M4190.5,4723.8l30.4,145.8h18l-30.4-145.8H4190.5z M4262.7,4849.1
				l4.3,20.4h17.9l-4.2-20.4H4262.7z M4236.4,4723.8l22.1,105.6h18l-22.1-105.6H4236.4z M4355.2,4762.2l18-1.9
				c-4.5-13.2-10.9-23-19.2-29.4c-8.3-6.4-17.8-9.6-28.4-9.6c-11.5,0-20.8,3.7-27.9,11.1c-7.1,7.4-10.7,17.8-10.7,31.1
				c0,11.5,2.3,22.9,6.9,34c4.6,11.1,11.1,19.6,19.7,25.4c8.5,5.8,18.2,8.7,29.2,8.7c11.3,0,20.3-3.2,26.9-9.6
				c6.6-6.4,9.9-14.9,9.9-25.4l-17.7-1.2c-0.1,6.7-2,11.9-5.8,15.7c-3.8,3.8-8.9,5.7-15.1,5.7c-7.2,0-13.5-2.3-18.8-6.9
				s-9.5-11.5-12.5-20.8c-3-9.3-4.5-18.3-4.5-26.9c0-9,2-15.8,6-20.3c4-4.5,8.9-6.8,14.7-6.8c5.8,0,11.4,2.2,16.8,6.7
				C4348,4746.4,4352.2,4753.2,4355.2,4762.2z M3594.9,4536.3c0,20.6,6.1,37.7,18.2,51.2c10,11.2,23.1,16.7,39.4,16.7
				c12.7,0,23-4,30.8-11.9c7.8-7.9,11.7-18.7,11.7-32.2c0-12.1-2.4-23.4-7.4-33.9c-4.9-10.4-11.9-18.4-20.9-24
				c-9.1-5.6-18.6-8.3-28.6-8.3c-8.2,0-15.7,1.7-22.4,5.3c-6.7,3.5-11.9,8.5-15.4,14.9C3596.7,4520.5,3594.9,4527.9,3594.9,4536.3z
				 M3612.9,4538.1c0-9.9,2.4-17.5,7.2-22.6c4.8-5.1,10.9-7.7,18.2-7.7c3.9,0,7.7,0.8,11.4,2.3c3.8,1.6,7.3,3.9,10.6,7.1
				c3.2,3.2,6,6.8,8.3,10.9c2.3,4.1,4.1,8.5,5.5,13.2c2.1,6.6,3.1,12.9,3.1,18.9c0,9.5-2.4,16.9-7.2,22.2
				c-4.8,5.3-10.8,7.9-18.1,7.9c-5.6,0-10.8-1.3-15.4-4c-4.6-2.7-8.9-6.6-12.6-11.8c-3.7-5.2-6.5-11.2-8.3-18.1
				C3613.8,4549.6,3612.9,4543.5,3612.9,4538.1L3612.9,4538.1z M3707.5,4496.2l19.2,91.7h-16.1l2.9,13.9h16.1l3.1,15
				c1.6,7.5,3.2,12.9,4.9,16.2c1.7,3.3,4.4,6,8.2,8.2c3.8,2.1,9,3.2,15.5,3.2c4.6,0,11.2-0.9,19.9-2.9l-3.3-15.7
				c-6.1,1.6-11.2,2.4-15.3,2.4c-3.5,0-6.2-0.9-8-2.7c-1.8-1.8-3.4-5.9-4.8-12.5l-2.4-11.3h20.1l-2.9-13.9h-20.1l-19.2-91.7
				L3707.5,4496.2L3707.5,4496.2z M3934.2,4547.6l19.3-2.7c-6.1-16.8-15-29.6-26.7-38.2c-11.6-8.6-24.7-12.9-39.3-12.9
				c-17.7,0-31.7,5.4-42.1,16.2c-10.4,10.8-15.5,26.3-15.5,46.4c0,26.3,7.9,48,23.7,65.1c14.1,15.3,31.5,23,52.4,23
				c15.4,0,28-4.1,37.5-12.4c9.6-8.3,15.1-19.4,16.7-33.4l-18.2-1.7c-1.9,10.5-5.9,18.4-11.9,23.6c-6,5.2-13.7,7.8-23.2,7.8
				c-17.9,0-32.3-7.9-43.3-23.8c-9.5-13.6-14.3-29.9-14.3-48.6c0-15,3.7-26.4,11-34.3c7.4-7.9,16.9-11.8,28.7-11.8
				c10.1,0,19.2,3.3,27.4,9.8C3924.6,4526.3,3930.5,4535.6,3934.2,4547.6z M3965.2,4496.2l22.1,105.6h15.9l-4.4-21.5
				c5.4,8.1,10.7,14.2,16,18.1c5.2,3.9,10.5,5.9,16,5.9c3.6,0,8-1.3,13.2-3.9l-7.4-16.7c-3.1,2.3-6.6,3.4-10.2,3.4
				c-6.3,0-12.8-3.5-19.4-10.6c-6.6-7-11.8-19.7-15.6-37.9l-9-42.4H3965.2L3965.2,4496.2z M4036.2,4536.3c0,20.6,6.1,37.7,18.2,51.2
				c10,11.2,23.1,16.7,39.4,16.7c12.7,0,23-4,30.8-11.9c7.8-7.9,11.7-18.7,11.7-32.2c0-12.1-2.4-23.4-7.4-33.9
				c-4.9-10.4-11.9-18.4-20.9-24c-9.1-5.6-18.6-8.3-28.6-8.3c-8.2,0-15.7,1.7-22.4,5.3c-6.7,3.5-11.9,8.5-15.4,14.9
				C4038,4520.5,4036.2,4527.9,4036.2,4536.3L4036.2,4536.3z M4054.2,4538.1c0-9.9,2.4-17.5,7.2-22.6c4.8-5.1,10.9-7.7,18.2-7.7
				c3.9,0,7.7,0.8,11.4,2.3c3.8,1.6,7.3,3.9,10.6,7.1c3.2,3.2,6,6.8,8.3,10.9c2.3,4.1,4.1,8.5,5.5,13.2c2.1,6.6,3.1,12.9,3.1,18.9
				c0,9.5-2.4,16.9-7.2,22.2c-4.8,5.3-10.8,7.9-18.1,7.9c-5.6,0-10.8-1.3-15.4-4c-4.6-2.7-8.9-6.6-12.6-11.8
				c-3.7-5.2-6.5-11.2-8.2-18.1C4055.1,4549.6,4054.2,4543.5,4054.2,4538.1L4054.2,4538.1z M4217.5,4509.4
				c-6.2-5.4-12.2-9.3-18-11.8c-5.8-2.5-11.9-3.7-18.5-3.7c-9.7,0-17.6,2.8-23.6,8.6c-5.9,5.7-8.9,13.1-8.9,22
				c0,5.9,1.3,11.1,4,15.6c2.7,4.6,6.2,8.2,10.7,11c4.4,2.8,9.9,4.7,16.3,5.9c4,0.8,11.7,1.4,23,1.9c11.3,0.4,19.4,1.7,24.3,3.6
				c1.4,4.9,2.1,9,2.1,12.3c0,4.2-1.5,7.4-4.6,9.8c-4.2,3.3-10.3,5-18.3,5c-7.6,0-13.7-1.7-18.5-5c-4.8-3.4-8.3-8.1-10.5-14.3
				l-18.2,1.6c3.7,10.5,9.6,18.5,17.6,24.1c8.1,5.6,18.2,8.3,30.5,8.3c13.1,0,23.4-3.1,31-9.4c5.8-4.6,8.8-10.7,8.8-18.1
				c0-5.6-0.8-12.1-2.5-19.6l-5.9-26.3c-1.9-8.3-2.8-15.1-2.8-20.4c0-3.3,0.7-8.1,2.2-14.3h-18.2
				C4218.6,4499.7,4217.9,4504.1,4217.5,4509.4L4217.5,4509.4z M4224.2,4549.7c-2.5-1-5.2-1.8-8.1-2.3c-2.9-0.5-7.7-1.1-14.5-1.7
				c-10.5-0.9-17.9-2.1-22.2-3.5c-4.3-1.4-7.6-3.7-9.7-6.8c-2.2-3.1-3.3-6.6-3.3-10.3c0-5.1,1.7-9.2,5.2-12.5
				c3.5-3.2,8.4-4.9,14.9-4.9c6,0,11.7,1.6,17.2,4.7c5.5,3.2,9.8,7.5,13,13.2C4219.9,4531.3,4222.4,4539.4,4224.2,4549.7z
				 M4301.6,4510.9l-3-14.7c-4.3-1.1-8.5-1.7-12.6-1.7c-7.1,0-12.8,1.8-17.1,5.3c-3.2,2.7-4.8,6.3-4.8,10.8c0,2.3,0.8,7.6,2.6,16
				l12.8,61.3h-14.2l2.9,13.9h14.2l5.5,26l20.6,12.4l-8.1-38.4h17.7l-3-13.9h-17.6l-12.2-58.4c-1.5-7.4-2.3-11.8-2.3-13.3
				c0-2.1,0.6-3.7,1.8-4.9c1.2-1.1,3.2-1.7,6-1.7C4295,4509.7,4298.5,4510.1,4301.6,4510.9L4301.6,4510.9z M4341.7,4621.6l4.3,20.4
				h17.9l-4.2-20.4H4341.7z M4315.5,4496.2l22.1,105.6h18l-22.1-105.6L4315.5,4496.2L4315.5,4496.2z M4432.6,4509.4
				c-6.3-5.4-12.2-9.3-18-11.8c-5.8-2.5-11.9-3.7-18.5-3.7c-9.7,0-17.6,2.8-23.6,8.6c-5.9,5.7-8.9,13.1-8.9,22
				c0,5.9,1.3,11.1,4,15.6c2.7,4.6,6.3,8.2,10.7,11c4.4,2.8,9.9,4.7,16.3,5.9c4,0.8,11.7,1.4,23,1.9c11.3,0.4,19.4,1.7,24.3,3.6
				c1.4,4.9,2.1,9,2.1,12.3c0,4.2-1.5,7.4-4.6,9.8c-4.2,3.3-10.3,5-18.3,5c-7.6,0-13.8-1.7-18.5-5c-4.8-3.4-8.3-8.1-10.5-14.3
				l-18.2,1.6c3.7,10.5,9.6,18.5,17.7,24.1c8.1,5.6,18.2,8.3,30.5,8.3c13.1,0,23.4-3.1,31-9.4c5.8-4.6,8.8-10.7,8.8-18.1
				c0-5.6-0.8-12.1-2.5-19.6l-5.9-26.3c-1.9-8.3-2.8-15.1-2.8-20.4c0-3.3,0.7-8.1,2.2-14.3h-18.2
				C4433.7,4499.7,4433,4504.1,4432.6,4509.4L4432.6,4509.4z M4439.3,4549.7c-2.5-1-5.2-1.8-8.1-2.3c-2.9-0.5-7.7-1.1-14.5-1.7
				c-10.5-0.9-17.9-2.1-22.2-3.5c-4.3-1.4-7.6-3.7-9.7-6.8c-2.2-3.1-3.3-6.6-3.3-10.3c0-5.1,1.7-9.2,5.2-12.5
				c3.5-3.2,8.4-4.9,14.9-4.9c6,0,11.7,1.6,17.2,4.7c5.5,3.2,9.8,7.5,13,13.2C4435,4531.3,4437.5,4539.4,4439.3,4549.7z
				 M3593.9,4268.7l30.4,145.8h24l14.7-94.5c1.9-12.4,3.2-24.3,3.8-35.7c4,9.8,10.8,23.1,20.3,39.9l51.1,90.3h24.3l-30.4-145.8H3713
				l15.2,70.9c3.5,16.4,8.6,34.7,15.1,55.1c-4.2-9.5-9.3-19.7-15.5-30.6l-54.3-95.4h-18.8l-14.6,93.5c-1.3,8.6-2.3,18.5-2.9,29.9
				c-1.7-12.8-3.3-22.9-4.9-30.4l-19.4-93H3593.9L3593.9,4268.7z M3786.9,4394.1l4.3,20.4h17.9l-4.2-20.4H3786.9L3786.9,4394.1z
				 M3760.7,4268.7l22.1,105.6h18l-22.1-105.6H3760.7z M3806.6,4268.7l22.1,105.6h16.3l-3.9-18.4c7.1,7.2,13.7,12.5,19.9,15.8
				c6.1,3.3,12.5,5,18.9,5c8.6,0,15.3-2.3,20.2-7c4.9-4.7,7.3-10.9,7.3-18.6c0-3.9-0.8-10.1-2.6-18.5l-13.4-63.9h-18l14,66.9
				c1.4,6.5,2.1,11.3,2.1,14.4c0,3.5-1.2,6.4-3.6,8.5c-2.4,2.2-5.9,3.3-10.5,3.3c-9.2,0-17.4-3.3-24.6-9.9
				c-7.2-6.6-12.5-18-15.9-34.1l-10.2-49.1H3806.6L3806.6,4268.7z M3945.4,4394.1l4.3,20.4h17.9l-4.2-20.4H3945.4z M3919.2,4268.7
				l22.1,105.6h18l-22.1-105.6H3919.2z M3966.8,4304.8l18,1.1c0-5.2,0.8-9.6,2.4-13.2c1.6-3.6,4.5-6.6,8.8-9c4.3-2.3,9.3-3.5,15-3.5
				c7.9,0,13.9,1.6,17.9,4.7c4,3.2,6,7,6,11.3c0,3.1-1.2,6-3.6,8.8c-2.4,2.8-8.4,6.2-17.9,10.3c-9.5,4.1-15.6,7-18.3,8.6
				c-4.4,2.7-7.8,5.9-10,9.6c-2.2,3.7-3.4,7.9-3.4,12.7c0,8.3,3.3,15.5,9.9,21.5c6.6,6,15.9,9,27.8,9c13.2,0,23.4-3.1,30.3-9.2
				c6.9-6.1,10.5-14.2,10.8-24.2l-17.6-1.2c-0.3,6.4-2.5,11.4-6.8,15.1c-4.2,3.7-10.2,5.6-18,5.6c-6.2,0-11.1-1.4-14.5-4.2
				c-3.5-2.8-5.2-5.9-5.2-9.3s1.5-6.2,4.5-8.8c2-1.7,7.1-4.4,15.4-7.9c13.8-6,22.5-10.7,26-14.1c5.7-5.5,8.6-12.2,8.6-20.1
				c0-5.2-1.6-10.4-4.8-15.4c-3.2-5-8.1-9.1-14.7-12.1c-6.6-3-14.4-4.5-23.3-4.5c-12.2,0-22.6,3-31.1,9
				C3970.4,4281.4,3966.3,4291.2,3966.8,4304.8L3966.8,4304.8z M4109,4283.4l-3-14.7c-4.3-1.1-8.5-1.7-12.6-1.7
				c-7.1,0-12.8,1.8-17.1,5.3c-3.2,2.7-4.8,6.3-4.8,10.8c0,2.3,0.9,7.6,2.6,16l12.8,61.3h-14.2l2.9,13.9h14.2l5.5,26l20.6,12.4
				l-8.1-38.4h17.7l-3-13.9H4105l-12.2-58.4c-1.5-7.4-2.3-11.8-2.3-13.3c0-2.1,0.6-3.7,1.8-4.9c1.2-1.1,3.2-1.7,6-1.7
				C4102.4,4282.2,4105.9,4282.6,4109,4283.4z M4123.5,4268.7l22.1,105.6h15.9l-4.4-21.5c5.4,8.1,10.7,14.2,16,18.1
				c5.2,3.9,10.5,5.9,16,5.9c3.6,0,8-1.3,13.2-3.9l-7.4-16.7c-3.1,2.3-6.6,3.4-10.2,3.4c-6.3,0-12.8-3.5-19.4-10.6
				c-6.7-7-11.8-19.7-15.6-37.9l-9-42.4H4123.5L4123.5,4268.7z M4184.6,4228l1.1,16.9c3.7-1,7.3-1.6,10.9-1.6c3.6,0,6.6,0.8,8.8,2.5
				c2.9,2.2,6.1,6.3,9.6,12.4l5.7,10.3l-17.6,105.9h17.7l8-53.4c1.6-10.5,3-21.1,4.1-31.6l47.3,85h18.8l-67.3-119.6
				c-6.5-11.7-12.3-19.4-17.3-23.2c-5-3.8-10.8-5.7-17.4-5.7C4192.6,4225.9,4188.6,4226.6,4184.6,4228L4184.6,4228z M3594.9,4081.3
				c0,20.6,6.1,37.7,18.2,51.2c10,11.2,23.1,16.7,39.4,16.7c12.7,0,23-4,30.8-11.9c7.8-7.9,11.7-18.7,11.7-32.2
				c0-12.2-2.4-23.4-7.4-33.9c-4.9-10.4-11.9-18.4-20.9-24c-9.1-5.6-18.6-8.3-28.6-8.3c-8.2,0-15.7,1.7-22.4,5.3
				c-6.7,3.5-11.9,8.5-15.4,14.9C3596.7,4065.5,3594.9,4072.9,3594.9,4081.3z M3612.9,4083.1c0-9.9,2.4-17.5,7.2-22.6
				c4.8-5.1,10.9-7.7,18.2-7.7c3.9,0,7.7,0.8,11.4,2.3c3.8,1.6,7.3,3.9,10.6,7.1c3.2,3.2,6,6.8,8.3,10.9c2.3,4.1,4.1,8.5,5.5,13.2
				c2.1,6.6,3.1,12.9,3.1,18.9c0,9.5-2.4,16.9-7.2,22.2c-4.8,5.3-10.8,7.9-18.1,7.9c-5.6,0-10.8-1.3-15.4-4
				c-4.6-2.7-8.9-6.6-12.6-11.8c-3.7-5.2-6.5-11.2-8.3-18.1C3613.8,4094.6,3612.9,4088.5,3612.9,4083.1L3612.9,4083.1z
				 M3707.5,4041.2l19.2,91.7h-16.1l2.9,13.9h16.1l3.1,15c1.6,7.5,3.2,12.9,4.9,16.2c1.7,3.3,4.4,6,8.2,8.2c3.8,2.1,9,3.2,15.5,3.2
				c4.6,0,11.2-0.9,19.9-2.9l-3.3-15.7c-6.1,1.6-11.2,2.4-15.3,2.4c-3.5,0-6.2-0.9-8-2.6c-1.8-1.8-3.4-5.9-4.8-12.5l-2.4-11.3h20.1
				l-2.9-13.9h-20.1l-19.2-91.7H3707.5L3707.5,4041.2z M3934.2,4092.5l19.3-2.7c-6.1-16.8-15-29.6-26.7-38.2
				c-11.6-8.6-24.7-12.9-39.3-12.9c-17.7,0-31.7,5.4-42.1,16.2c-10.4,10.8-15.5,26.3-15.5,46.4c0,26.3,7.9,48,23.7,65.1
				c14.1,15.3,31.5,23,52.4,23c15.4,0,28-4.1,37.5-12.4c9.6-8.3,15.1-19.4,16.7-33.4l-18.2-1.7c-1.9,10.5-5.9,18.4-11.9,23.6
				c-6,5.2-13.7,7.8-23.2,7.8c-17.9,0-32.3-7.9-43.3-23.8c-9.5-13.7-14.3-29.9-14.3-48.6c0-15,3.7-26.4,11-34.3
				c7.4-7.9,16.9-11.8,28.7-11.8c10.1,0,19.2,3.3,27.4,9.8C3924.6,4071.3,3930.5,4080.5,3934.2,4092.5L3934.2,4092.5z
				 M4037.3,4060.3c-12.7-14.3-25.6-21.5-38.9-21.5c-8.2,0-14.7,2.3-19.8,7c-5,4.7-7.5,10.4-7.5,17.2c0,4.4,1.1,12.1,3.4,22.8
				l12.7,61h18l-14.1-67.5c-1.2-5.6-1.8-10-1.8-13.1c0-4,1.2-7.1,3.6-9.3c2.4-2.2,6-3.3,10.7-3.3c5,0,9.9,1.2,14.8,3.7
				c4.8,2.4,9,5.8,12.4,9.9c3.5,4.2,6.3,9.1,8.5,14.8c1.5,3.7,3.2,10,5.1,19.2l9.5,45.6h18l-22.1-105.6h-16.6L4037.3,4060.3
				L4037.3,4060.3z M4077.1,4041.2l30.4,145.8h18l-30.4-145.8H4077.1L4077.1,4041.2z M4165.8,4055.9l-3-14.7
				c-4.3-1.1-8.5-1.7-12.6-1.7c-7.1,0-12.8,1.8-17.1,5.3c-3.2,2.7-4.8,6.2-4.8,10.8c0,2.3,0.8,7.6,2.6,16l12.8,61.3h-14.2l2.9,13.9
				h14.2l5.5,26l20.6,12.4l-8.1-38.4h17.7l-3-13.9h-17.6l-12.2-58.4c-1.5-7.4-2.3-11.8-2.3-13.3c0-2.1,0.6-3.7,1.8-4.9
				c1.2-1.1,3.2-1.7,6-1.7C4159.1,4054.7,4162.7,4055,4165.8,4055.9L4165.8,4055.9z M4252.4,4060.3c-12.7-14.3-25.6-21.5-38.9-21.5
				c-8.1,0-14.7,2.3-19.8,7c-5,4.7-7.5,10.4-7.5,17.2c0,4.4,1.1,12.1,3.4,22.8l12.7,61h18l-14.1-67.5c-1.2-5.6-1.8-10-1.8-13.1
				c0-4,1.2-7.1,3.6-9.3c2.4-2.2,6-3.3,10.7-3.3c5,0,9.9,1.2,14.8,3.7c4.8,2.4,9,5.8,12.4,9.9c3.5,4.2,6.3,9.1,8.5,14.8
				c1.5,3.7,3.2,10,5.1,19.2l9.5,45.6h18l-22.1-105.6h-16.6L4252.4,4060.3L4252.4,4060.3z M4293.6,4041.2l22.1,105.6h15.9l-4.4-21.6
				c5.4,8.2,10.7,14.2,16,18.1c5.2,3.9,10.5,5.9,16,5.9c3.6,0,8-1.3,13.2-3.9l-7.4-16.7c-3.1,2.3-6.5,3.4-10.2,3.4
				c-6.3,0-12.8-3.5-19.4-10.6c-6.7-7-11.8-19.7-15.6-37.9l-9-42.4H4293.6L4293.6,4041.2z M4439,4077.1l17.5-1.8
				c-2.5-8.7-8.3-16.9-17.3-24.8c-9.1-7.8-19.9-11.7-32.4-11.7c-7.8,0-15,1.8-21.5,5.4c-6.5,3.6-11.5,8.9-14.9,15.8
				c-3.4,6.9-5.1,14.7-5.1,23.6c0,11.5,2.7,22.7,8,33.6c5.4,10.8,12.3,18.9,20.7,24.2c8.5,5.3,17.7,7.9,27.6,7.9
				c12.6,0,22.6-3.9,30.2-11.7c7.5-7.8,11.3-18.5,11.3-32c0-5.2-0.4-10.5-1.4-15.9h-77.8c-0.2-2.1-0.4-3.9-0.4-5.6
				c0-9.9,2.3-17.4,6.8-22.6c4.5-5.2,10.1-7.8,16.7-7.8c6.2,0,12.2,2,18.2,6.1C4431,4063.7,4435.7,4069.5,4439,4077.1L4439,4077.1z
				 M4386.6,4103.3h59.3c0.1,1.9,0.1,3.2,0.1,4c0,9-2.2,16-6.8,20.7c-4.5,4.8-10.3,7.2-17.4,7.2c-7.7,0-14.7-2.7-21-8
				C4394.5,4121.9,4389.8,4114,4386.6,4103.3"/>
			<path id="path15026" class="st0" d="M2421.5,4914.7h718v-553c0-203.3-42.2-363.8-127.3-481.5c-84.5-117.7-229.2-221.9-433.6-312
				l-157.1,293.4c127.8,59.7,215.7,118.8,263.5,177.4c47.9,59.1,74.3,128.4,80,208.9h-343.5V4914.7"/>
			<path id="path15028" class="st1" d="M2421.5,5326.9h718v672.9h-718V5326.9z"/>
			<path id="path15030" class="st0" d="M2421.5,4914.7h718v-553c0-203.3-42.2-363.8-127.3-481.5c-84.5-117.7-229.2-221.9-433.6-312
				l-157.1,293.4c127.8,59.7,215.7,118.8,263.5,177.4c47.9,59.1,74.3,128.4,80,208.9h-343.5V4914.7"/>
			<path id="path15032" class="st1" d="M2421.5,5326.9h718v672.9h-718V5326.9z"/>
		</g>
	</g>
</g>
<g>
	<path d="M184.2,86.3c0,0.6-0.4,1-1,1c-0.6,0-1-0.4-1-1c0-0.6,0.4-1,1-1C183.8,85.2,184.2,85.7,184.2,86.3z M182.3,97.8v-9h1.6v9
		H182.3z"/>
	<path d="M190.6,91.2c0-0.9,0-1.7-0.1-2.4h1.4l0.1,1.5h0.1c0.5-0.9,1.3-1.7,2.8-1.7c1.2,0,2.2,0.7,2.6,1.8h0c0.3-0.5,0.6-0.9,1-1.2
		c0.5-0.4,1.1-0.6,2-0.6c1.2,0,3,0.8,3,3.9v5.3h-1.6v-5.1c0-1.7-0.6-2.8-2-2.8c-0.9,0-1.7,0.7-1.9,1.5c-0.1,0.2-0.1,0.5-0.1,0.8v5.6
		h-1.6v-5.4c0-1.4-0.6-2.5-1.9-2.5c-1,0-1.8,0.8-2,1.6c-0.1,0.2-0.1,0.5-0.1,0.8v5.4h-1.6V91.2z"/>
	<path d="M207.1,93.6c0,2.2,1.5,3.1,3.1,3.1c1.2,0,1.9-0.2,2.5-0.5l0.3,1.2c-0.6,0.3-1.6,0.6-3,0.6c-2.8,0-4.4-1.8-4.4-4.5
		s1.6-4.9,4.2-4.9c2.9,0,3.7,2.6,3.7,4.2c0,0.3,0,0.6-0.1,0.8H207.1z M211.9,92.4c0-1-0.4-2.7-2.3-2.7c-1.7,0-2.4,1.5-2.5,2.7H211.9
		z"/>
	<path d="M223.3,84.6v10.9c0,0.8,0,1.7,0.1,2.3h-1.5l-0.1-1.6h0c-0.5,1-1.6,1.8-3.1,1.8c-2.2,0-3.9-1.8-3.9-4.6c0-3,1.8-4.8,4-4.8
		c1.4,0,2.3,0.7,2.7,1.4h0v-5.4H223.3z M221.6,92.5c0-0.2,0-0.5-0.1-0.7c-0.2-1-1.1-1.9-2.4-1.9c-1.7,0-2.7,1.5-2.7,3.5
		c0,1.8,0.9,3.3,2.7,3.3c1.1,0,2.1-0.7,2.4-2c0.1-0.2,0.1-0.4,0.1-0.7V92.5z"/>
	<path d="M227.8,86.3c0,0.6-0.4,1-1,1c-0.6,0-1-0.4-1-1c0-0.6,0.4-1,1-1C227.4,85.2,227.8,85.7,227.8,86.3z M226,97.8v-9h1.6v9H226z
		"/>
	<path d="M228.1,100.4c0.7-0.1,1.4-0.3,1.8-0.7c0.4-0.5,0.6-1.2,0.6-3.4v-7.5h1.6V97c0,1.7-0.3,2.9-1.1,3.7c-0.7,0.7-1.9,1-2.8,1
		L228.1,100.4z M232.4,86.3c0,0.5-0.4,1-1,1c-0.6,0-1-0.5-1-1c0-0.6,0.4-1,1-1C232,85.2,232.4,85.7,232.4,86.3z"/>
	<path d="M239.8,97.8l-0.1-1.1h-0.1c-0.5,0.7-1.5,1.3-2.8,1.3c-1.8,0-2.8-1.3-2.8-2.6c0-2.2,1.9-3.4,5.4-3.4v-0.2
		c0-0.7-0.2-2.1-2-2.1c-0.8,0-1.7,0.3-2.3,0.7l-0.4-1.1c0.7-0.5,1.8-0.8,3-0.8c2.8,0,3.4,1.9,3.4,3.7v3.4c0,0.8,0,1.5,0.1,2.2H239.8
		z M239.6,93.2c-1.8,0-3.8,0.3-3.8,2c0,1.1,0.7,1.6,1.5,1.6c1.2,0,1.9-0.7,2.2-1.5c0.1-0.2,0.1-0.4,0.1-0.5V93.2z"/>
</g>
<g>
	<path d="M186.1,194.1c0-0.5,0.1-1.4,0.2-2.3h0c-1,1.9-2.2,2.5-3.5,2.5c-1.6,0-2.6-1.3-2.6-3c0-3.1,2.3-6.4,6.2-6.4
		c0.9,0,1.8,0.1,2.4,0.4l-0.9,4.7c-0.3,1.6-0.4,3.2-0.4,4.2H186.1z M187.1,186.2c-0.2-0.1-0.6-0.1-1.1-0.1c-2.3,0-4.2,2.4-4.2,4.9
		c0,1,0.4,2,1.5,2c1.3,0,2.8-1.7,3.3-4.1L187.1,186.2z"/>
	<path d="M189.9,194.1l1.2-6.4c0.2-1,0.3-1.9,0.4-2.6h1.4l-0.2,1.8h0c0.8-1.3,2-2,3.3-2c1.1,0,2.3,0.6,2.3,2.5c0,0.4-0.1,1-0.2,1.5
		l-1,5.2h-1.5l1-5.2c0.1-0.4,0.1-0.8,0.1-1.2c0-0.9-0.4-1.6-1.4-1.6c-1.1,0-2.7,1.3-3.1,3.6l-0.8,4.4H189.9z"/>
	<path d="M209.4,180.8l-2,10.4c-0.2,0.9-0.3,2-0.4,2.8h-1.4l0.2-1.8h0c-0.8,1.3-2,2-3.2,2c-1.7,0-2.7-1.4-2.7-3.3
		c0-3.2,2.4-6.1,5.6-6.1c0.6,0,1.2,0.1,1.6,0.3l0.8-4.3H209.4z M206.8,186.5c-0.3-0.2-0.8-0.4-1.5-0.4c-2.2,0-3.8,2.3-3.8,4.7
		c0,1.1,0.4,2.2,1.7,2.2c1.2,0,2.6-1.4,3-3.4L206.8,186.5z"/>
	<path d="M223.5,194.1l0.9-6.8c0.2-1.2,0.4-3,0.7-4.2H225c-0.6,1.3-1.3,2.8-2,4l-3.7,6.9h-1.2l-0.9-6.8c-0.2-1.5-0.3-2.9-0.4-4.2h0
		c-0.3,1.2-0.7,3.1-1,4.2l-1.7,6.8h-1.5l3.3-12.5h2l1,7.2c0.1,1.1,0.3,2.2,0.3,3.1h0.1c0.4-0.9,0.9-2,1.5-3.1l3.9-7.2h2l-1.6,12.5
		H223.5z"/>
	<path d="M234,193.5c-0.7,0.4-1.8,0.7-3,0.7c-2.4,0-3.4-1.6-3.4-3.6c0-2.7,2-5.8,4.9-5.8c1.7,0,2.6,1,2.6,2.3c0,2.4-2.7,3-6,2.9
		c-0.1,0.4,0,1.2,0.2,1.7c0.4,0.8,1.1,1.2,2,1.2c1.1,0,1.9-0.3,2.4-0.6L234,193.5z M232.3,186.1c-1.5,0-2.6,1.4-2.9,2.8
		c2.4,0,4.3-0.3,4.3-1.7C233.6,186.5,233.1,186.1,232.3,186.1z"/>
	<path d="M245.5,180.8l-2,10.4c-0.2,0.9-0.3,2-0.4,2.8h-1.4l0.2-1.8h0c-0.8,1.3-2,2-3.2,2c-1.7,0-2.7-1.4-2.7-3.3
		c0-3.2,2.4-6.1,5.6-6.1c0.6,0,1.2,0.1,1.6,0.3l0.8-4.3H245.5z M242.9,186.5c-0.3-0.2-0.8-0.4-1.5-0.4c-2.2,0-3.8,2.3-3.8,4.7
		c0,1.1,0.4,2.2,1.7,2.2c1.2,0,2.6-1.4,3-3.4L242.9,186.5z"/>
	<path d="M245.7,194.1l1.7-9h1.5l-1.7,9H245.7z M247.7,182.5c0-0.6,0.5-1,1-1c0.6,0,0.9,0.4,0.9,1c0,0.6-0.4,1-1,1
		C248,183.5,247.7,183.1,247.7,182.5z"/>
	<path d="M255.9,194.1c0-0.5,0.1-1.4,0.2-2.3h0c-1,1.9-2.2,2.5-3.5,2.5c-1.6,0-2.6-1.3-2.6-3c0-3.1,2.3-6.4,6.2-6.4
		c0.9,0,1.8,0.1,2.4,0.4l-0.9,4.7c-0.3,1.6-0.4,3.2-0.4,4.2H255.9z M256.9,186.2c-0.2-0.1-0.6-0.1-1.1-0.1c-2.3,0-4.2,2.4-4.2,4.9
		c0,1,0.4,2,1.5,2c1.3,0,2.8-1.7,3.3-4.1L256.9,186.2z"/>
</g>
</svg>
