<svg xmlns="http://www.w3.org/2000/svg" viewBox="0 0 250 250" xmlns:v="https://vecta.io/nano"><path d="M143.6 55.3c-3.7 0-7.1.4-10.3 1.3v12.6c2.8-2 6.3-3.1 10.5-3.1 11.7 0 18.6 9 18.6 20.3v6.2c0 11.8-7.1 20.5-18.4 20.5-4.3 0-7.8-1.2-10.7-3.2v12.4c3.2 1 6.7 1.5 10.3 1.5 19.9 0 34-13.3 34-31.2v-6.2c0-6.8-1.9-13.2-5.8-17.9 3.2-5.3 7.3-7.1 10.2-7.9 1.7-.8 3.2-2.3 3.2-4.3 0-2.6-2.4-5.8-6.8-5.8-4.1 0-9 3.9-12.8 12.2-5.6-4.6-13.1-7.4-22-7.4m-10.3 132.4c3.6.6 7.4.9 11.5.9 21.4 0 38.2-8.8 38.2-27.4 0-26.4-33.6-23.1-49.6-27V147c.7-.3 1.5-.6 2.3-.8 11.8 1.5 32.1 1.3 32.1 15.4 0 9.8-9 16.2-23.1 16.2-4.2 0-8-.6-11.3-1.6v11.5z" fill="#6cc04a"/><path d="M209.2 88.5l12-17.2c.6-.8.9-1.6.9-2.4 0-1.4-1-2.1-2-2.1h-16.2c-1.1 0-1.8 1.1-1.8 2.4s.8 2.5 1.8 2.5h10.6l-12 17.2c-.4.6-1 1.5-1 2.4 0 1 .6 2.1 2.1 2.1H221c1.1 0 1.9-1.1 1.9-2.4 0-1.4-.8-2.5-1.9-2.5h-11.8zm-2.7-35.7a1.08 1.08 0 0 0-.7-.3c-.8 0-1.3 1-1.3 1.8 0 .7.3 1.3 1 1.8l5.8 4.2c.3.2.7.4 1 .4.4 0 .7-.2 1.1-.4l5.7-4.2c.7-.5 1-1.2 1-1.8 0-.9-.6-1.8-1.3-1.8a1.08 1.08 0 0 0-.7.3l-5.7 4.2-5.9-4.2z" fill="#a4a9ad"/><path d="M110 110V90.8c0-19.7-15-36.1-33.8-36.1-4.5 0-8.5 1-12.1 2.5v13.5c2.7-1.2 5.6-1.9 8.5-1.9 12 0 21.8 10.9 21.8 22V110c0 11.3-10 22.4-21.4 22.4-3.2 0-6.2-.9-8.9-2.2v13.3c3.8 1.9 8.2 3 12.8 3 17.7 0 33.1-17.5 33.1-36.5m-60.5 77.7c4.3 0 7.9-2.8 7.9-5.6v-122c0-3.2-3.6-5.5-7.9-5.5s-7.7 2.3-7.7 5.5V182c0 2.8 3.4 5.7 7.7 5.7" fill="#00a8e1"/></svg>