<?xml version="1.0" encoding="utf-8"?>
<!-- Generator: Adobe Illustrator 19.0.0, SVG Export Plug-In . SVG Version: 6.00 Build 0)  -->
<svg version="1.1" id="Layer_1" xmlns="http://www.w3.org/2000/svg" xmlns:xlink="http://www.w3.org/1999/xlink" x="0px" y="0px"
	 viewBox="50 5.3 300 90.7" style="enable-background:new 50 5.3 300 90.7;" xml:space="preserve">
<style type="text/css">
	.st0{display:none;}
	.st1{fill:#1E8C75;}
	.st2{fill:#228A74;}
	.st3{fill:#FDCE2E;}
	.st4{fill:none;stroke:#FFF100;stroke-width:10;stroke-miterlimit:10;}
	.st5{fill:#FCCD2E;}
	.st6{fill:#E23E4E;}
	.st7{fill:#C63341;}
	.st8{fill:#751934;}
	.st9{fill:#971F3B;}
	.st10{fill:#B32C3F;}
	.st11{fill:#3F9B6A;}
	.st12{fill:#397654;}
	.st13{fill:#419C69;}
	.st14{fill:#F4BD18;}
	.st15{fill:#FFFFFF;}
</style>
<rect x="50" y="5.3" class="st0" width="300" height="90.7"/>
<g id="XMLID_134_">
	<path id="XMLID_141_" class="st1" d="M83.3,14.2c1.1-1.1,3-1.2,4.2-0.2c1.1,0.8,1.6,2.3,1.2,3.6c-0.3,0.9-1,1.7-1.9,2.1
		c0,1,0,1.9,0,2.9c-0.9,0-1.8,0-2.6,0c0-1,0-1.9,0-2.9c-0.7-0.4-1.4-0.9-1.7-1.7C81.9,16.8,82.2,15.1,83.3,14.2z"/>
	<g id="XMLID_138_">
		<path id="XMLID_139_" class="st2" d="M81.1,24.4c3.5-0.8,7.1-0.6,10.5,0.5c3.5,1.2,6.6,3.3,8.8,6.2c2.8,3.4,4.3,7.8,4.2,12.2
			c0,2,0,3.9,0,5.9c2.5,0.6,4.5,2.9,4.6,5.5c0,4.8,0,9.6,0,14.5c1.2,0.5,2,1.7,2,3c0,0.9-0.4,1.9-1.1,2.5c-1.1,1-2.8,1.2-4,0.4
			c-1.1-0.6-1.7-1.9-1.5-3.2c0.1-1.2,0.9-2.2,1.9-2.7c0-3,0-6.1,0-9.1c-0.6,0.4-1.3,0.6-1.9,0.9c0,1.4,0,2.8,0,4.3
			c-0.3,4-2.9,7.8-6.6,9.4c-1.5,0.7-3.1,1-4.7,1c-5.3,0-10.6,0-15.9,0c-2.3,0-4.6-0.7-6.4-2.1c-2.3-1.6-3.9-4-4.5-6.7
			c-0.4-1.9-0.2-3.9-0.3-5.9c-0.7-0.2-1.4-0.5-1.9-0.9c0,3.1,0,6.1,0,9.2c1.2,0.5,2,1.8,2,3.1c0,1.4-1,2.7-2.3,3.1
			c-1.4,0.5-3-0.1-3.8-1.3c-0.9-1.2-0.7-3,0.3-4.1c0.3-0.4,0.7-0.6,1.1-0.8c0-4.5,0-9,0-13.5c0-1,0.1-1.9,0.4-2.8
			c0.7-1.8,2.3-3.2,4.2-3.6c0-2.2,0-4.4,0-6.6c0.1-4,1.5-8,4-11.2C73,27.9,76.9,25.4,81.1,24.4z"/>
	</g>
	<path id="XMLID_135_" class="st2" d="M77.6,76.8c5.3,0,10.6,0,15.9,0c-0.2,1.6-1.3,3-2.6,3.8c-2.2,1.4-4.9,1.8-7.4,1.3
		c-1.7-0.3-3.4-1.1-4.6-2.4C78.2,78.7,77.7,77.8,77.6,76.8z"/>
</g>
<circle id="XMLID_133_" class="st3" cx="77" cy="37.4" r="6"/>
<circle id="XMLID_132_" class="st3" cx="94" cy="37.4" r="6"/>
<path id="XMLID_32_" class="st4" d="M67.1,65.6"/>
<g id="XMLID_31_">
	<path id="XMLID_24_" class="st5" d="M97.9,40.7c0.2-0.3,0.4-0.6,0.6-0.8l-13-7.5l-13,7.5c0.4,0.2,0.7,0.6,1.2,0.9l11.9-6.9L97.9,41
		C97.9,40.9,97.9,40.8,97.9,40.7z"/>
</g>
<g id="XMLID_15_">
	<path id="XMLID_33_" class="st5" d="M81.3,52.8l-3.5-2l0-14.3c-0.1,0.1-0.2,0.1-0.3,0.1c-0.3,0-0.7,0-1-0.1l0,15l3.4,2c0,0,0,0,0,0
		c0.1,0,0.2-0.1,0.3-0.2C80.6,53.1,81.2,52.8,81.3,52.8z"/>
</g>
<g id="XMLID_118_">
	<path id="XMLID_126_" class="st6" d="M80.7,52.4c-0.3-0.5-0.2-1.2,0.1-1.7c0.3-0.5,0.9-0.9,1.6-0.8c-0.3,0.1-0.6,0.3-0.7,0.7
		c-0.2,0.4,0,0.9,0.4,1.1c-0.1-0.1-0.3-0.1-0.4-0.2c-0.1,0.1-0.3,0.3-0.2,0.5c0.5,0.6,1.3,0.5,1.9,0.5c0.5,0,1,0.1,1.4,0.2
		c0.3,0,0.3-0.3,0.2-0.5c0.1,0.1,0.3,0.1,0.4,0.2c0.2,0.1,0.3,0.2,0.5,0.3c-0.3,0.2-0.5,0.5-0.8,0.8c-1.1-0.2-2.2,0-3.3-0.1
		C81.4,53.2,81.1,52.8,80.7,52.4c-0.5,0.3-0.8,0.9-0.6,1.4c-0.2,0.1-0.4,0.1-0.4,0.3c0,0.2,0.2,0.4,0.4,0.5c0.2,0,0.3-0.1,0.4-0.3
		c-0.1-0.1-0.2-0.3-0.3-0.4c0.2,0.2,0.4,0.4,0.7,0.4c-0.1,0.2-0.2,0.5,0.1,0.6c1.2,0.2,2.5-0.2,3.7,0.3c0.5,0.2,0.9,0.5,1.3,0.8
		c0.3,0.1,0.3-0.2,0.4-0.4c0.2,0.2,0.4,0.4,0.5,0.6c0.2,0.3,0.3,0.6,0.5,0.9c0.3,0.8,0.3,1.6,0.3,2.4c-0.2-0.8-0.5-1.6-1.1-2.2
		c-0.6-0.7-1.4-1.1-2.3-1.3C83.8,56,83.2,56,82.7,56c-0.6,0-1.2,0-1.7,0c-0.5,0-1.1-0.1-1.5-0.5c-0.6-0.5-0.7-1.3-0.5-2
		C79.2,52.8,80,52.4,80.7,52.4z"/>
	<path id="XMLID_125_" class="st6" d="M84.2,51.3c-0.6,0-1.2-0.5-1.3-1.1c0.2,0.1,0.5,0.1,0.7-0.1c0.1,0.2,0.3,0.4,0.5,0.5
		c0.2,0,0.4,0,0.7,0c0.3,0,0.6,0.1,0.8,0.2c0.1,0,0.2,0.1,0.4,0.1c-0.2,0.2-0.4,0.3-0.7,0.5C84.9,51.3,84.6,51.3,84.2,51.3z"/>
	<path id="XMLID_124_" class="st6" d="M84.6,48.5c0.6,0,1.1,0,1.7,0c-0.3,0.2-0.6,0.5-0.9,0.7c-0.3,0-0.5,0-0.8,0
		C84.7,49,84.7,48.7,84.6,48.5z"/>
	<path id="XMLID_123_" class="st7" d="M87.1,52.7c-0.3-0.1-0.2-0.3-0.2-0.5c0.7-0.3,1.4-0.3,2.1-0.3c0.1,0.2,0.2,0.4,0,0.6
		c-0.3,0.1-0.6,0-1,0.1C87.8,52.5,87.5,52.7,87.1,52.7z"/>
	<path id="XMLID_122_" class="st7" d="M86.8,55.3c-0.2-0.1-0.1-0.4,0-0.6c0.9-0.4,1.9-0.4,2.8-0.4c0.2,0.2,0.2,0.5,0,0.6
		c-0.6,0.1-1.2,0-1.8,0.1C87.5,55.2,87.1,55.4,86.8,55.3z"/>
	<path id="XMLID_121_" class="st6" d="M83.4,58.6c0.2-0.4,0.8-0.6,1.2-0.4c0.4,0.2,0.7,0.5,1.1,0.7c0.4,0.3,0.4,0.9,0.1,1.3
		c-0.3,0.3-0.8,0.3-1.1,0.1c-0.3-0.2-0.7-0.4-1-0.7C83.3,59.3,83.2,58.9,83.4,58.6z"/>
	<path id="XMLID_120_" class="st7" d="M90.6,55c-0.2-0.1-0.1-0.4-0.1-0.6c0.3,0,0.5,0,0.8,0c0,0.1,0.1,0.3,0.1,0.4
		C91.2,55,90.8,55.1,90.6,55z"/>
	<path id="XMLID_119_" class="st6" d="M86.1,60.5c0.1-0.2,0.4-0.4,0.6-0.3c0.2,0.2,0.1,0.5-0.1,0.6C86.3,61,86,60.7,86.1,60.5z"/>
</g>
<g id="XMLID_110_">
	<path id="XMLID_117_" class="st8" d="M81.6,50.5c0.1-0.3,0.4-0.5,0.7-0.7c0.2,0,0.4,0,0.6,0c0,0.1,0,0.2,0,0.4
		c0.1,0.6,0.7,1.1,1.3,1.1c0.3,0,0.7,0,1,0.1c-0.1,0.2-0.3,0.4-0.5,0.6c-0.5-0.2-1-0.2-1.5-0.2c-0.4,0-0.9,0.1-1.2-0.2
		C81.7,51.4,81.5,50.9,81.6,50.5z"/>
	<path id="XMLID_116_" class="st8" d="M80.1,53.7c-0.2-0.5,0.1-1.1,0.6-1.3c0.4,0.3,0.7,0.8,1.2,0.8c0,0.4,0,0.7,0.1,1.1
		c-0.3,0-0.7,0-1,0c-0.3-0.1-0.5-0.2-0.7-0.4C80.2,53.9,80.2,53.8,80.1,53.7z"/>
	<path id="XMLID_115_" class="st8" d="M83.6,50.1c0-0.2,0-0.5,0.2-0.7c0.2-0.2,0.5-0.3,0.8-0.3c0.3,0,0.5,0,0.8,0
		c-0.3,0.4-0.5,0.9-0.6,1.4c-0.2,0-0.4,0-0.7,0C83.9,50.5,83.8,50.3,83.6,50.1z"/>
	<path id="XMLID_114_" class="st8" d="M85.5,50.7c0-0.8,0.7-1.5,1.5-1.5c0.4,0,0.9-0.1,1.2,0.2c0.3,0.3,0.2,0.8-0.1,1.1
		c-0.2,0.2-0.5,0.1-0.7,0.1c-0.5,0-0.9,0.1-1.4,0.3c-0.1,0-0.2-0.1-0.4-0.1C85.6,50.8,85.5,50.7,85.5,50.7z"/>
	<path id="XMLID_113_" class="st8" d="M85.5,52.3c0.3-0.4,0.8-0.8,1.3-0.9c0.5-0.1,1,0,1.5-0.2c0.5-0.2,0.8-0.8,0.8-1.3
		c0.2,0,0.4,0,0.6,0c0.3,0.2,0.6,0.4,0.7,0.7c0.1,0.4,0,0.8-0.3,1c-0.3,0.3-0.7,0.3-1,0.3c-0.7,0-1.5,0-2.1,0.3
		c-0.3,0.2-0.7,0.3-1,0.5C85.8,52.5,85.6,52.4,85.5,52.3z"/>
	<path id="XMLID_112_" class="st8" d="M84.9,54.7c0.4-0.5,0.9-0.9,1.4-1.1c0.8-0.4,1.7-0.2,2.5-0.3c0.5,0,0.9,0,1.4-0.1
		c0.4-0.1,0.7-0.5,1-0.8c0.5,0.1,0.8,0.7,0.7,1.1c-0.1,0.3-0.4,0.6-0.7,0.7c-0.3,0-0.5,0-0.8,0c-0.2,0-0.3,0-0.5,0
		C89.7,54,89.2,54,88.8,54c-0.7,0-1.5-0.1-2.2,0.2c-0.5,0.1-0.9,0.4-1.2,0.7C85.2,54.8,85.1,54.7,84.9,54.7z"/>
	<path id="XMLID_111_" class="st8" d="M87.4,57.2c-0.1-0.3-0.3-0.6-0.5-0.9c0.5-0.2,1-0.3,1.6-0.3c0.8,0,1.7,0,2.5,0
		c0,0.6,0,1.3-0.1,1.9c-0.3,1.8-1.8,3.4-3.5,3.9c-0.2,0-0.3,0.1-0.5,0.1c-0.1,0-0.2,0-0.2,0c0.3-0.2,0.5-0.5,0.8-0.7
		c0.3-0.3,0.7-0.5,1.1-0.8c0.6-0.5,1-1.1,1.3-1.8c0.2-0.6-0.2-1.4-0.8-1.5C88.5,57.1,88,57.2,87.4,57.2z"/>
</g>
<g id="XMLID_105_">
	<path id="XMLID_109_" class="st6" d="M82.9,49.8c0-0.8,0.9-1.5,1.7-1.3c0.1,0.2,0.1,0.5,0,0.7c-0.3,0-0.6,0-0.8,0.3
		c-0.1,0.2-0.1,0.4-0.2,0.7c-0.2,0.1-0.5,0.1-0.7,0.1C82.9,50.1,82.9,50,82.9,49.8z"/>
	<path id="XMLID_108_" class="st6" d="M81.5,52c-0.2-0.2,0-0.4,0.2-0.5c0.1,0.1,0.3,0.1,0.4,0.2c0.4,0.2,0.8,0.2,1.2,0.2
		c0.5,0,1,0,1.5,0.2c0.1,0,0.2,0.1,0.3,0.1c0.1,0.2,0,0.5-0.2,0.5c-0.5-0.1-0.9-0.2-1.4-0.2C82.7,52.5,81.9,52.5,81.5,52z"/>
	<path id="XMLID_107_" class="st6" d="M79.7,54.1c0-0.2,0.3-0.2,0.4-0.3c0,0,0.1,0.1,0.1,0.2c0.1,0.1,0.2,0.3,0.3,0.4
		c-0.1,0.1-0.2,0.3-0.4,0.3C79.9,54.5,79.7,54.3,79.7,54.1z"/>
	<path id="XMLID_106_" class="st6" d="M81,55c-0.3-0.1-0.1-0.4-0.1-0.6c0.3,0,0.7,0,1,0c0,0,0.1,0,0.1,0c1,0,1.9-0.1,2.8,0.3
		c0.1,0.1,0.3,0.1,0.4,0.2c0.2,0.1,0.5,0.3,0.7,0.4c0.1,0.1,0.3,0.2,0.4,0.4c0,0.2-0.1,0.5-0.4,0.4c-0.4-0.3-0.8-0.6-1.3-0.8
		C83.5,54.8,82.2,55.1,81,55z"/>
</g>
<g id="XMLID_97_">
	<path id="XMLID_104_" class="st7" d="M84.8,50.6c0.1-0.5,0.3-1,0.6-1.4c0.3-0.3,0.6-0.5,0.9-0.7c0.5,0,1,0,1.5,0
		c0.7,0.1,1.2,0.7,1.2,1.3c0,0.5-0.3,1.1-0.8,1.3c-0.5,0.3-1,0.1-1.5,0.2c-0.6,0.1-1,0.5-1.3,0.9c-0.1-0.1-0.3-0.1-0.4-0.2
		c-0.1,0-0.2-0.1-0.3-0.1c0.2-0.2,0.3-0.4,0.5-0.6c0.2-0.1,0.5-0.3,0.7-0.5c0.4-0.2,0.9-0.3,1.4-0.3c0.2,0,0.5,0,0.7-0.1
		c0.3-0.2,0.4-0.8,0.1-1.1c-0.3-0.3-0.8-0.2-1.2-0.2c-0.8,0-1.5,0.7-1.5,1.5c0,0,0.1,0.1,0.1,0.1C85.3,50.7,85.1,50.6,84.8,50.6z"/>
	<path id="XMLID_103_" class="st7" d="M82.1,54.4c0.2-0.2,0.4-0.4,0.7-0.4c0.7,0,1.3,0,2,0c0.1-0.2,0.3-0.4,0.4-0.6
		c0.3-0.3,0.5-0.5,0.8-0.8c0.3-0.2,0.6-0.4,1-0.5c0,0.2-0.1,0.5,0.2,0.5c0.3,0,0.7-0.2,1-0.2c0.3,0,0.7,0,1-0.1
		c0.2-0.1,0.1-0.4,0-0.6c0.3,0,0.7,0,1-0.3c0.3-0.2,0.4-0.7,0.3-1c-0.1-0.3-0.4-0.5-0.7-0.7c0.5,0,1,0.2,1.3,0.6
		c0.5,0.5,0.6,1.3,0.3,2c0.6,0,1.3,0.3,1.6,0.9c0.4,0.7,0.3,1.6-0.2,2.2c-0.4,0.4-1,0.6-1.6,0.6c-0.8,0-1.7,0-2.5,0
		c-0.5,0-1.1,0.1-1.6,0.3c-0.2-0.2-0.3-0.4-0.5-0.6c-0.1-0.1-0.3-0.2-0.4-0.4c0.3-0.2,0.5-0.4,0.8-0.5c-0.1,0.1-0.3,0.4,0,0.6
		c0.3,0.1,0.7-0.2,1-0.2c0.6-0.2,1.2,0,1.8-0.1c0.3-0.1,0.2-0.4,0-0.6c0.1,0,0.2,0,0.3,0c0.2,0,0.3,0,0.5,0c0,0.2-0.1,0.5,0.1,0.6
		c0.3,0.1,0.7,0.1,0.7-0.2c0-0.1-0.1-0.3-0.1-0.4c0.3-0.2,0.6-0.4,0.7-0.7c0.1-0.5-0.2-1-0.7-1.1c-0.3,0.3-0.5,0.7-1,0.8
		c-0.4,0.1-0.9,0.1-1.4,0.1c-0.9,0-1.7-0.1-2.5,0.3c-0.6,0.2-1,0.6-1.4,1.1C84,54.3,83,54.4,82.1,54.4z"/>
	<g id="XMLID_98_">
		<path id="XMLID_99_" class="st7" d="M82.3,57.7c0.2-0.3,0.6-0.6,0.9-0.6c0.5,0,0.9,0,1.4,0c1.5,0.2,2.8,1.4,3.1,2.9
			c0.1,0.6-0.3,1.1-0.9,1.3c-0.4,0.2-0.9,0.1-1.4,0c-1.3-0.2-2.5-1.1-3.1-2.3C82.1,58.7,82,58.2,82.3,57.7z M83.4,58.6
			c-0.1,0.3-0.1,0.7,0.2,1c0.3,0.3,0.7,0.5,1,0.7c0.3,0.2,0.8,0.2,1.1-0.1c0.3-0.3,0.3-1-0.1-1.3c-0.3-0.3-0.7-0.5-1.1-0.7
			C84.2,57.9,83.6,58.1,83.4,58.6z M86.1,60.5c-0.1,0.2,0.2,0.5,0.5,0.4c0.2-0.1,0.3-0.5,0.1-0.6C86.4,60.1,86.1,60.2,86.1,60.5z"/>
	</g>
</g>
<g id="XMLID_87_">
	<path id="XMLID_96_" class="st9" d="M81.9,53.3c1.1,0.1,2.2-0.1,3.3,0.1c-0.1,0.2-0.3,0.4-0.4,0.6c-0.7,0-1.3,0-2,0
		c-0.3,0-0.5,0.2-0.7,0.4c0,0-0.1,0-0.1,0C81.9,54,81.9,53.6,81.9,53.3z"/>
	<g id="XMLID_89_">
		<path id="XMLID_91_" class="st9" d="M81.3,58.7c-0.3-0.8-0.3-1.8-0.3-2.7c0.6,0,1.2,0,1.7,0c0.5,0,1.1,0,1.6,0.1
			c0.9,0.2,1.7,0.6,2.3,1.3c0.6,0.6,0.9,1.4,1.1,2.2c0-0.8,0-1.6-0.3-2.4c0.5,0,1.1-0.1,1.6,0c0.6,0.1,1,0.9,0.8,1.5
			c-0.3,0.7-0.7,1.3-1.3,1.8c-0.3,0.3-0.8,0.4-1.1,0.8c-0.2,0.3-0.5,0.5-0.8,0.7c-0.7,0.1-1.5,0.1-2.2-0.2
			C83,61.4,81.8,60.2,81.3,58.7z M82.3,57.7c-0.3,0.4-0.2,1,0.1,1.4c0.6,1.2,1.8,2.1,3.1,2.3c0.5,0.1,0.9,0.1,1.4,0
			c0.5-0.2,1-0.8,0.9-1.3c-0.3-1.5-1.6-2.7-3.1-2.9c-0.5,0-0.9,0-1.4,0C82.8,57.2,82.5,57.4,82.3,57.7z M88.4,58.5
			c-0.2,0.2,0,0.5,0.3,0.5c0.2-0.1,0.5-0.4,0.3-0.6C88.9,58.2,88.5,58.3,88.4,58.5z"/>
	</g>
	<path id="XMLID_88_" class="st9" d="M85.4,54.9c0.4-0.3,0.8-0.6,1.2-0.7c0.7-0.2,1.4-0.1,2.2-0.2c0.4,0,0.9,0,1.2,0.4
		c-0.1,0-0.2,0-0.3,0c-0.9,0-1.9,0-2.8,0.4c-0.3,0.1-0.6,0.3-0.8,0.5C85.8,55.1,85.6,55,85.4,54.9z"/>
</g>
<g id="XMLID_85_">
	<path id="XMLID_86_" class="st10" d="M88.4,58.5c0.1-0.2,0.5-0.3,0.6-0.1c0.2,0.2-0.1,0.5-0.3,0.6C88.4,59.1,88.3,58.7,88.4,58.5z"
		/>
</g>
<g id="XMLID_42_">
	<path id="XMLID_45_" class="st11" d="M91.2,58.2c-1.3,0-2.7,0.2-3.7,1c-0.8,0.7-1.3,1.7-1.6,2.7c-0.3-1.1-0.8-2.2-1.8-2.8
		c-0.2-0.2-0.4-0.3-0.7-0.4c-0.7-0.4-1.5-0.4-2.3-0.4c-0.2,0.1-0.4,0-0.6-0.1c-0.3,1.4,0.6,2.8,1.7,3.6c1.5,1.1,3.5,0.8,5.2,0.8
		c1.1-0.2,2.1-0.8,2.9-1.6c0.5-0.8,0.8-1.8,0.9-2.7L91.2,58.2z"/>
	<path id="XMLID_43_" class="st11" d="M89.1,65.8c0.1,0,0.2,0,0.2-0.1c0.7-0.1,1.5-0.1,2.2-0.1c0,1.2,0.1,2.7-0.9,3.6
		c-0.9,1-2.3,0.9-3.5,0.8c0-0.7,0-1.4,0-2C87.4,67.1,88.2,66.2,89.1,65.8z"/>
</g>
<g id="XMLID_16_">
	<path id="XMLID_21_" class="st12" d="M85,58.1c0.3-0.4,0.6-0.7,1-0.9c0.6,0.6,1.2,1.3,1.5,2.1c-0.8,0.7-1.3,1.7-1.6,2.7
		c-0.3-1.1-0.8-2.2-1.8-2.8C84.6,58.9,84.8,58.4,85,58.1z"/>
	<path id="XMLID_44_" class="st12" d="M82.3,61.7c-1.1-0.8-1.9-2.2-1.7-3.6c0,0,0,0-0.1-0.1c-0.1-0.1-0.1-0.2-0.2-0.2
		c-0.9,0.2-1.8,0.3-2.6,0.6c0,0.1-0.1,0.2-0.1,0.3c0.2,0.8,0.4,1.7,0.6,2.6c0.3,1.3,1.5,2.3,2.8,2.5c1.2,0.2,2.3-0.4,3.5-0.5
		c0.3,0.1,0.6,0.3,0.9,0.5c0.3,0,0.6,0.1,1,0.1l0.2-0.1c0.4-0.3,0.7-0.8,1-1.3C85.8,62.5,83.8,62.9,82.3,61.7z"/>
</g>
<g id="XMLID_13_">
	<path id="XMLID_14_" class="st13" d="M85.5,63.8c0.3,0,0.6,0.1,1,0.1c0,2.1,0,4.1,0,6.2c-0.3,0-0.6,0-0.9,0
		C85.4,68,85.4,65.9,85.5,63.8z"/>
</g>
<circle id="XMLID_27_" class="st14" cx="77" cy="37.4" r="2.8"/>
<circle id="XMLID_26_" class="st14" cx="94" cy="37.4" r="2.8"/>
<g id="XMLID_1_">
	<path class="st15" d="M115.6,55h1.7V42.1h-1.7v-3.7h8c6.6,0,10.3,4.2,10.3,10.2c0,6.3-3.7,10.2-10.3,10.2h-8V55z M123.6,54.8
		c3.7,0,5.9-2.4,5.9-6.3c0-3.7-2.1-6.2-5.9-6.2h-2v12.5H123.6z"/>
	<path class="st15" d="M138.7,47.1h-2.5v-3.7h6.7v15.3h-4.2V47.1z M138.4,38.9c0-1.4,1.1-2.4,2.5-2.4c1.4,0,2.5,1.1,2.5,2.4
		c0,1.4-1.1,2.5-2.5,2.5C139.5,41.4,138.4,40.3,138.4,38.9z"/>
	<path class="st15" d="M149.8,61.5h6.8c0.7,0,1-0.3,1-1v-3.2h-0.3c-0.8,1-2,1.8-4.1,1.8c-3.9,0-7.1-3.5-7.1-8c0-4.5,3-8,6.9-8
		c2.4,0,3.5,1.1,4.4,1.9h0.3v-1.6h4.2v17.2c0,3.3-2,4.7-5.1,4.7h-6.9V61.5z M157.7,51c0-2.4-1.6-4-3.7-4c-2,0-3.7,1.6-3.7,4
		c0,2.4,1.6,4,3.7,4C156.2,55,157.7,53.2,157.7,51z"/>
	<path class="st15" d="M167,47.1h-2.5v-3.7h6.7v15.3H167V47.1z M166.6,38.9c0-1.4,1.1-2.4,2.5-2.4c1.4,0,2.5,1.1,2.5,2.4
		c0,1.4-1.1,2.5-2.5,2.5C167.7,41.4,166.6,40.3,166.6,38.9z"/>
	<path class="st15" d="M176.6,53.9v-6.8h-2.5v-3.7h2.8v-4.2h3.9v4.2h4.1v3.7h-4.1v6.8c0,0.7,0.3,1,1,1h2.9v3.8h-3.3
		C178.3,58.7,176.6,57.3,176.6,53.9z"/>
	<path class="st15" d="M187.1,51c0-4.6,3.1-8,7-8c1.9,0,3.3,0.8,4.2,1.8h0.3v-1.4h4.2v11.1c0,0.4,0.3,0.6,0.7,0.6h0.6v3.5h-3.8
		c-1,0-1.7-0.8-1.7-1.6h-0.3c-0.8,1.2-2,2-4.2,2C190.2,59,187.1,55.6,187.1,51z M198.7,51c0-2.5-1.7-3.9-3.7-3.9
		c-2,0-3.7,1.5-3.7,3.9c0,2.4,1.7,3.9,3.7,3.9C197.3,55,198.7,53.2,198.7,51z"/>
	<path class="st15" d="M206.5,54.9h2.7V40.7h-2.7v-3.8h6.9v18h2.7v3.8h-9.6V54.9z"/>
	<path class="st15" d="M218.8,43.4h4.2v1.4h0.3c0.7-1,1.9-1.8,3.7-1.8c3.2,0,5.4,2.4,5.4,5.4v10.3h-4.2v-8.9c0-1.5-1-2.7-2.5-2.7
		c-1.5,0-2.6,1.2-2.6,2.7v8.9h-4.2V43.4z"/>
	<path class="st15" d="M234.9,51c0-4.8,3.5-8,7.8-8c4.7,0,7.6,3.5,7.6,8v1.1h-11.1c0,2,1.5,3.2,3.5,3.2c1.4,0,2.7-0.6,3.3-1.8
		l3.8,0.9c-1.1,3.4-4.1,4.7-7,4.7C238.2,59,234.9,55.7,234.9,51z M246.1,49.3c-0.2-1.5-1.6-2.8-3.4-2.8c-2,0-3.2,1.4-3.4,2.8H246.1z
		"/>
	<path class="st15" d="M254.3,38.4h6.4c4.1,0,6.6,2.4,6.6,5.9c0,3-1.7,5.4-4.8,6l5.5,8.4h-2.8l-5.1-8.2h-3.4v8.2h-2.3V38.4z
		 M260.7,48.4c2.4,0,4.2-1.4,4.2-4.1c0-2.1-1.5-3.9-4.3-3.9h-3.9v7.9H260.7z"/>
	<path class="st15" d="M270.6,51.1c0-4.6,3.4-7.9,7.9-7.9c4.6,0,7.9,3.4,7.9,7.9c0,4.5-3.4,7.9-7.9,7.9
		C273.9,59,270.6,55.7,270.6,51.1z M284,51.1c0-3.3-2.3-5.8-5.5-5.8c-3.2,0-5.5,2.5-5.5,5.8c0,3.4,2.3,5.8,5.5,5.8
		C281.7,57,284,54.5,284,51.1z"/>
	<path class="st15" d="M289.5,55.9l9.2-10.2v-0.2h-8.9v-1.9h11.1v2.8l-9.2,10.2v0.2h9.3v1.9h-11.5V55.9z M291.1,37.2h2.2l1.7,2.1
		h0.2l1.7-2.1h2.1l-2.7,3.8h-2.4L291.1,37.2z"/>
	<path class="st15" d="M307.3,45.5h-2.8v-1.9h5.1v15.1h-2.3V45.5z M306.8,39.2c0-0.9,0.7-1.7,1.7-1.7c1,0,1.7,0.7,1.7,1.7
		c0,1-0.7,1.7-1.7,1.7C307.5,40.9,306.8,40.1,306.8,39.2z"/>
	<path class="st15" d="M314.2,51.1c0-4.5,3.3-7.9,7.7-7.9c3.3,0,6.2,2,7,5.3l-2.3,0.5c-0.4-2.3-2.3-3.8-4.7-3.8
		c-3.2,0-5.4,2.6-5.4,5.8c0,3.4,2.3,5.8,5.5,5.8c2.3,0,4.3-1.5,4.7-3.8l2.3,0.5c-0.8,3.4-3.7,5.3-7,5.3
		C317.4,59,314.2,55.6,314.2,51.1z"/>
	<path class="st15" d="M331.8,51.2c0-4.8,3.3-8,7.3-8c4.6,0,7.2,3.2,7.2,7.7v0.8h-12.1c0,3.4,2,5.3,5.1,5.3c2.1,0,4.1-1.2,4.6-3.3
		l2.2,0.5c-0.8,2.8-3.3,4.8-6.8,4.8C334.7,59,331.8,55.8,331.8,51.2z M344,49.9c-0.1-3.1-2.3-4.6-4.8-4.6c-2.5,0-4.7,1.8-4.9,4.6
		H344z"/>
</g>
</svg>
