<?xml version="1.0" encoding="utf-8"?>
<!-- Generator: Adobe Illustrator 19.0.0, SVG Export Plug-In . SVG Version: 6.00 Build 0)  -->
<svg version="1.1" id="Layer_1" xmlns="http://www.w3.org/2000/svg" xmlns:xlink="http://www.w3.org/1999/xlink" x="0px" y="0px"
	 viewBox="0 0 300 90.7" style="enable-background:new 0 0 300 90.7;" xml:space="preserve">
<style type="text/css">
	.st0{fill:#FFFFFF;}
</style>
<g id="XMLID_62_">
	<g id="XMLID_95_">
		<path id="XMLID_130_" class="st0" d="M33.2,35.8c-2.9-1.5-6.1-2.3-9.7-2.3c-3.6,0-6.9,0.8-9.7,2.3c-2.9,1.5-5.1,3.7-6.8,6.5
			c-1.6,2.8-2.4,6.1-2.4,9.9c0,3.8,0.8,7.1,2.4,9.9c1.6,2.8,3.9,5,6.8,6.5c2.9,1.5,6.1,2.3,9.7,2.3c3.6,0,6.8-0.8,9.7-2.3
			c2.9-1.5,5.1-3.7,6.7-6.5c1.6-2.8,2.4-6.1,2.4-9.9c0-3.8-0.8-7.1-2.4-9.9C38.3,39.4,36.1,37.3,33.2,35.8z M28.9,58.9
			c-1.4,1.5-3.2,2.3-5.4,2.3c-2.1,0-3.9-0.8-5.4-2.3c-1.5-1.5-2.2-3.7-2.2-6.7c0-2.9,0.7-5.1,2.2-6.7c1.5-1.5,3.3-2.3,5.4-2.3
			c2.1,0,3.9,0.8,5.4,2.3c1.4,1.5,2.2,3.8,2.2,6.7C31,55.1,30.3,57.3,28.9,58.9z"/>
		<path id="XMLID_127_" class="st0" d="M71.7,39.5c-0.9-2.2-2.4-3.9-4.4-5.2c-2-1.3-4.4-1.9-7.2-1.9c-3,0-5.7,0.8-8.1,2.3
			c-2.4,1.5-4.2,3.7-5.6,6.5c-1.4,2.8-2.1,6.1-2.1,10c0,3.8,0.7,7.1,2.1,9.9c1.4,2.8,3.2,5,5.6,6.5c2.4,1.5,5.1,2.3,8.1,2.3
			c2.8,0,5.2-0.6,7.2-1.9c2-1.3,3.5-3,4.4-5.2v6.6h11.2V21H71.7V39.5z M69.5,57.6C68,59.2,66.1,60,63.7,60c-2.4,0-4.3-0.8-5.8-2.4
			c-1.5-1.6-2.2-3.7-2.2-6.5c0-2.8,0.7-5,2.2-6.5c1.5-1.6,3.4-2.4,5.8-2.4c2.4,0,4.3,0.8,5.8,2.4c1.5,1.6,2.3,3.8,2.3,6.5
			C71.7,53.8,71,56,69.5,57.6z"/>
		<path id="XMLID_124_" class="st0" d="M112.8,40.3c-1-2.2-2.4-3.9-4.4-5.2c-2-1.3-4.4-1.9-7.2-1.9c-3,0-5.7,0.8-8.1,2.3
			c-2.4,1.5-4.2,3.7-5.6,6.5c-1.4,2.8-2.1,6.1-2.1,10c0,3.8,0.7,7.1,2.1,9.9c1.4,2.8,3.2,5,5.6,6.5c2.4,1.5,5.1,2.3,8.1,2.3
			c2.8,0,5.2-0.6,7.2-1.9c2-1.3,3.5-3,4.4-5.2v6.6h11.1V33.7h-11.1V40.3z M110.5,58.4c-1.5,1.6-3.4,2.4-5.8,2.4
			c-2.4,0-4.3-0.8-5.8-2.4c-1.5-1.6-2.2-3.7-2.2-6.5c0-2.8,0.7-5,2.2-6.5c1.5-1.6,3.4-2.4,5.8-2.4c2.4,0,4.3,0.8,5.8,2.4
			c1.5,1.6,2.3,3.8,2.3,6.5C112.8,54.6,112,56.7,110.5,58.4z"/>
		<path id="XMLID_54_" class="st0" d="M151.8,50.7c-1.8-0.7-4.1-1.3-6.9-2c-2.6-0.6-4.5-1.1-5.7-1.7c-1.2-0.6-1.8-1.4-1.8-2.5
			c0-1,0.3-1.8,1-2.3c0.7-0.5,1.6-0.8,2.9-0.8c1.6,0,2.9,0.4,4,1.3c1.1,0.8,1.8,2,2.1,3.5h10.5c-0.7-3.8-2.4-6.8-5.2-9.1
			c-2.8-2.3-6.5-3.5-11.1-3.5c-4.5,0-8,1-10.5,3s-3.7,4.7-3.7,7.9c0,2.5,0.6,4.5,1.9,6c1.3,1.5,2.8,2.5,4.5,3.2
			c1.7,0.7,4,1.3,6.7,1.8c2.7,0.6,4.6,1.2,5.8,1.7c1.2,0.5,1.8,1.4,1.8,2.7c0,1-0.3,1.7-1,2.3c-0.7,0.6-1.6,0.9-2.9,0.9
			c-1.8,0-3.3-0.4-4.5-1.2c-1.2-0.8-1.8-2-2-3.6h-10.8c0.7,4.1,2.5,7.2,5.4,9.3c3,2.2,6.9,3.3,11.8,3.3c2.9,0,5.4-0.5,7.6-1.4
			c2.1-0.9,3.8-2.2,4.9-3.8c1.1-1.6,1.7-3.5,1.7-5.6c0-2.6-0.7-4.6-2-6.1C155.1,52.5,153.5,51.4,151.8,50.7z"/>
		<polygon id="XMLID_53_" class="st0" points="202.8,20.9 192,25.2 191.7,70.9 202.8,70.9 		"/>
		<path id="XMLID_52_" class="st0" d="M205.5,74.7c0,1.2-0.3,2-0.8,2.5c-0.5,0.5-1.4,0.8-2.5,0.8h-2.7v9.6h4.2
			c8.7,0,13.1-4.3,13.1-13V33.7h-11.2V74.7z"/>
		<path id="XMLID_118_" class="st0" d="M246.5,40.3c-1-2.2-2.4-3.9-4.4-5.2c-2-1.3-4.4-1.9-7.2-1.9c-3,0-5.7,0.8-8.1,2.3
			c-2.4,1.5-4.2,3.7-5.6,6.5c-1.4,2.8-2.1,6.1-2.1,10c0,3.8,0.7,7.1,2.1,9.9c1.4,2.8,3.2,5,5.6,6.5c2.4,1.5,5.1,2.3,8.1,2.3
			c2.8,0,5.2-0.6,7.2-1.9c2-1.3,3.5-3,4.4-5.2v6.6h11.1V33.7h-11.1V40.3z M244.2,58.4c-1.5,1.6-3.4,2.4-5.8,2.4
			c-2.4,0-4.3-0.8-5.8-2.4c-1.5-1.6-2.2-3.7-2.2-6.5c0-2.8,0.7-5,2.2-6.5c1.5-1.6,3.4-2.4,5.8-2.4c2.4,0,4.3,0.8,5.8,2.4
			c1.5,1.6,2.3,3.8,2.3,6.5C246.5,54.7,245.7,56.8,244.2,58.4z"/>
		<polygon id="XMLID_49_" class="st0" points="288.4,25.6 288.4,21.9 278.3,23.9 268.2,21.9 268.2,25.6 278.3,31.1 		"/>
		<path id="XMLID_48_" class="st0" d="M282.4,59.7c-1.1,0.9-2.5,1.3-4.1,1.3c-2,0-3.6-0.8-4.8-2.3c-1.3-1.5-1.9-3.8-1.9-6.8
			c0-3,0.6-5.2,1.9-6.8c1.3-1.5,2.9-2.3,4.8-2.3c1.7,0,3,0.4,4.1,1.3c1.1,0.9,1.8,2.1,2.2,3.7h11.8c-0.8-4.5-2.8-8.1-6-10.7
			c-3.2-2.6-7.1-3.9-11.8-3.9c-3.6,0-6.8,0.8-9.5,2.3c-2.8,1.5-5,3.7-6.5,6.5c-1.5,2.8-2.3,6.1-2.3,10c0,3.8,0.8,7.1,2.4,9.9
			c1.6,2.8,3.7,5,6.5,6.5c2.8,1.5,5.9,2.3,9.5,2.3c4.7,0,8.6-1.3,11.8-3.9c3.2-2.6,5.2-6.2,6-10.7h-11.8
			C284.2,57.7,283.4,58.9,282.4,59.7z"/>
		<path id="XMLID_113_" class="st0" d="M223.9,27.1h0.6l2.2,3.9h2.8l-2.5-4.1c0.8-0.2,1.4-0.6,1.8-1.1c0.4-0.5,0.6-1.2,0.6-1.9
			c0-0.6-0.1-1.2-0.4-1.7c-0.3-0.5-0.7-0.9-1.3-1.2c-0.6-0.3-1.3-0.4-2.1-0.4h-4.3V31h2.5V27.1z M223.9,22.7h1.6
			c0.5,0,0.9,0.1,1.1,0.4c0.2,0.2,0.4,0.6,0.4,1c0,0.4-0.1,0.8-0.4,1c-0.2,0.2-0.6,0.3-1.1,0.3h-1.6V22.7z"/>
		<path id="XMLID_110_" class="st0" d="M230.1,28.5c0.5,0.8,1.1,1.4,1.9,1.9c0.8,0.5,1.7,0.7,2.7,0.7c1,0,1.9-0.2,2.7-0.7
			c0.8-0.5,1.4-1.1,1.9-1.9c0.5-0.8,0.7-1.7,0.7-2.7c0-1-0.2-1.9-0.7-2.7c-0.5-0.8-1.1-1.4-1.9-1.9c-0.8-0.5-1.7-0.7-2.7-0.7
			c-1,0-1.9,0.2-2.7,0.7s-1.4,1.1-1.9,1.9c-0.5,0.8-0.7,1.7-0.7,2.7C229.4,26.8,229.6,27.7,230.1,28.5z M232.7,23.6
			c0.5-0.5,1.1-0.8,2-0.8c0.8,0,1.5,0.3,2,0.8c0.5,0.5,0.7,1.3,0.7,2.2c0,0.9-0.2,1.6-0.7,2.2c-0.5,0.5-1.1,0.8-2,0.8
			c-0.8,0-1.5-0.3-2-0.8c-0.5-0.5-0.7-1.3-0.7-2.2C231.9,24.8,232.2,24.1,232.7,23.6z"/>
		<polygon id="XMLID_43_" class="st0" points="246,18.8 246,17.1 243.7,18.4 241.4,17.1 241.4,18.8 243.7,20 		"/>
		<path id="XMLID_106_" class="st0" d="M250.9,20.7l-3.5,9.5V29h-4.6l4.6-6.5v-1.9h-7.3v2h4.5l-4.5,6.5V31h7.1h0.3h2.4l0.6-1.9h3.9
			l0.6,1.9h2.7l-3.8-10.3H250.9z M251,27.2l1.3-3.8l1.3,3.8H251z"/>
		<path id="XMLID_101_" class="st0" d="M87.4,27.2H88l2.1,3.8h2.1h0.6h2l0.6-1.8h3.7l0.6,1.8h2.4h0.1h3.6c1.1,0,2-0.2,2.8-0.6
			c0.8-0.4,1.4-1,1.8-1.8c0.4-0.8,0.6-1.6,0.6-2.6c0-1-0.2-1.8-0.6-2.6c-0.4-0.7-1-1.3-1.8-1.7c-0.8-0.4-1.7-0.6-2.8-0.6h-3.8v9.6
			l-3.5-9.6h-2.8l-3.4,9.3l-2-3.3c0.8-0.2,1.3-0.5,1.7-1c0.4-0.5,0.6-1.1,0.6-1.8c0-0.6-0.1-1.1-0.4-1.6c-0.3-0.5-0.7-0.8-1.2-1.1
			c-0.5-0.3-1.2-0.4-2-0.4H85V31h2.4V27.2z M104.5,23.2h1.1c0.9,0,1.7,0.2,2.2,0.7c0.5,0.5,0.8,1.2,0.8,2.1s-0.3,1.6-0.8,2.1
			c-0.5,0.5-1.2,0.7-2.2,0.7h-1.1V23.2z M97.2,23.7l1.2,3.7H96L97.2,23.7z M87.4,23.1h1.5c0.5,0,0.8,0.1,1,0.3
			c0.2,0.2,0.3,0.5,0.3,0.9c0,0.4-0.1,0.7-0.3,0.9c-0.2,0.2-0.6,0.3-1.1,0.3h-1.5V23.1z"/>
		<rect id="XMLID_36_" x="111.4" y="21" class="st0" width="2.4" height="9.9"/>
		<path id="XMLID_97_" class="st0" d="M121.7,21.5c-0.8-0.4-1.6-0.7-2.5-0.7c-0.9,0-1.8,0.2-2.5,0.7c-0.8,0.4-1.4,1-1.8,1.8
			c-0.4,0.8-0.7,1.6-0.7,2.6c0,1,0.2,1.8,0.7,2.6c0.4,0.8,1,1.4,1.8,1.8c0.8,0.4,1.6,0.7,2.5,0.7c0.9,0,1.8-0.2,2.5-0.7
			c0.8-0.4,1.4-1,1.8-1.8c0.4-0.8,0.7-1.7,0.7-2.6c0-1-0.2-1.8-0.7-2.6C123,22.6,122.4,22,121.7,21.5z M121,28.1
			c-0.5,0.5-1.1,0.8-1.9,0.8c-0.8,0-1.4-0.3-1.9-0.8c-0.5-0.5-0.7-1.2-0.7-2.1c0-0.9,0.2-1.6,0.7-2.1c0.5-0.5,1.1-0.8,1.9-0.8
			c0.8,0,1.4,0.3,1.9,0.8c0.5,0.5,0.7,1.2,0.7,2.1S121.5,27.5,121,28.1z"/>
		
			<ellipse id="XMLID_33_" transform="matrix(0.4221 -0.9066 0.9066 0.4221 98.5452 206.465)" class="st0" cx="211.2" cy="25.9" rx="5" ry="5.1"/>
	</g>
	<polygon id="XMLID_32_" class="st0" points="152.3,25.3 142.2,30.8 132.1,25.3 132.1,21.5 142.2,23.6 152.3,21.5 	"/>
	<path id="Tower" class="st0" d="M183,70.2h2.2L175.3,27c1.5-0.3,2.9-1.3,3.6-2.8c1.2-2.5,0.1-5.5-2.5-6.7c-2.6-1.2-5.6-0.1-6.7,2.4
		c-1.2,2.5-0.1,5.5,2.5,6.7c0.4,0.2,0.7,0.3,1.1,0.4l-9.9,43.2h2.2l1.6-7.1h14.3L183,70.2z M170.9,50.3l3.3-5l3.3,5H170.9z
		 M177.3,51.8l-3.1,2.8l-3.1-2.8H177.3z M175,44.1l1.5-2.2l1.6,6.8L175,44.1z M175.5,41l-1.3,1.9l-1.3-1.9H175.5z M176,39.8
		L176,39.8L176,39.8L176,39.8z M173.1,36.7L173.1,36.7L173.1,36.7L173.1,36.7z M171.9,41.9l1.5,2.2l-3,4.6L171.9,41.9z M169.5,52.6
		l3.5,3.1l-5.3,4.8L169.5,52.6z M178.9,52.6l1.8,7.9l-5.3-4.8L178.9,52.6z M167.3,61.9L167.3,61.9L167.3,61.9L167.3,61.9z
		 M174.2,56.8l5.6,5.1h-11.3L174.2,56.8z M181.1,61.9L181.1,61.9L181.1,61.9L181.1,61.9z"/>
	<g id="Signal">
		<path id="XMLID_18_" class="st0" d="M186.1,16.3c0.1-0.1,0.2-0.1,0.3-0.2c-1.1-2.1-2.7-3.9-4.7-5.2c0,0.1-0.1,0.2-0.1,0.4
			C183.5,12.6,185,14.3,186.1,16.3z"/>
		<path id="XMLID_17_" class="st0" d="M186.4,17c0.9,1.9,1.4,4,1.4,6.1c0.1,0,0.2,0,0.4,0.1c0-2.3-0.5-4.4-1.4-6.4
			C186.6,16.8,186.5,16.9,186.4,17z"/>
		<path id="XMLID_16_" class="st0" d="M188.1,23.9c-0.1,0-0.2,0-0.4-0.1c0,0.1,0,0.3,0,0.4c-0.2,2.3-0.9,4.3-2,6.2
			c0.1,0.1,0.2,0.2,0.3,0.2c1.1-1.9,1.9-4,2.1-6.4C188.1,24.1,188.1,24,188.1,23.9z"/>
		<path id="XMLID_15_" class="st0" d="M189.4,23.4c0.2,0,0.4,0.1,0.6,0.1c0.1-2.7-0.5-5.2-1.7-7.6c-0.2,0.1-0.3,0.2-0.5,0.3
			C188.9,18.3,189.5,20.8,189.4,23.4z"/>
		<path id="XMLID_14_" class="st0" d="M189.3,24.4c-0.2,2.6-1.1,5-2.4,7.1c0.1,0.1,0.3,0.2,0.5,0.4c1.4-2.2,2.3-4.7,2.5-7.4
			c0-0.1,0-0.2,0-0.3c-0.2,0-0.4,0-0.6-0.1C189.4,24.2,189.4,24.3,189.3,24.4z"/>
		<path id="XMLID_13_" class="st0" d="M187.5,15.5c0.2-0.1,0.3-0.2,0.5-0.3c-0.5-0.9-1.1-1.8-1.8-2.7c-1.1-1.3-2.3-2.4-3.7-3.2
			c-0.1,0.2-0.2,0.3-0.3,0.5C184.4,11.3,186.2,13.2,187.5,15.5z"/>
		<path id="XMLID_12_" class="st0" d="M184.5,17.3c-0.8-1.5-1.9-2.9-3.3-4c0,0,0,0.1,0,0.1C182.5,14.4,183.6,15.8,184.5,17.3
			C184.5,17.3,184.5,17.3,184.5,17.3z"/>
		<path id="XMLID_11_" class="st0" d="M185.8,22.8C185.8,22.8,185.9,22.8,185.8,22.8c0.1-1.7-0.3-3.4-1-4.9c0,0,0,0-0.1,0
			C185.4,19.4,185.8,21.1,185.8,22.8z"/>
		<path id="XMLID_10_" class="st0" d="M185.9,23.5C185.9,23.5,185.8,23.5,185.9,23.5c-0.1,0.1-0.1,0.3-0.1,0.5
			c-0.2,1.8-0.7,3.5-1.6,5c0,0,0,0,0.1,0c0.9-1.5,1.4-3.2,1.6-5.1C185.9,23.8,185.9,23.7,185.9,23.5z"/>
		<path id="XMLID_9_" class="st0" d="M160.7,23.2c0-2.2,0.5-4.3,1.4-6.1c-0.1-0.1-0.2-0.1-0.3-0.2c-0.9,1.9-1.4,4.1-1.4,6.4
			C160.5,23.2,160.6,23.2,160.7,23.2z"/>
		<path id="XMLID_8_" class="st0" d="M160.7,23.9c-0.1,0-0.2,0-0.4,0.1c0,0.1,0,0.3,0,0.4c0.2,2.3,0.9,4.5,2.1,6.4
			c0.1-0.1,0.2-0.2,0.3-0.2c-1.1-1.8-1.8-3.9-2-6.2C160.7,24.2,160.7,24,160.7,23.9z"/>
		<path id="XMLID_7_" class="st0" d="M160.7,16.2c-0.2-0.1-0.3-0.2-0.5-0.3c-1.2,2.3-1.7,4.9-1.7,7.6c0.2,0,0.4,0,0.6-0.1
			C159.1,20.9,159.6,18.4,160.7,16.2z"/>
		<path id="XMLID_6_" class="st0" d="M159.1,24.1c-0.2,0-0.4,0.1-0.6,0.1c0,0.1,0,0.2,0,0.3c0.2,2.7,1.1,5.2,2.5,7.4
			c0.2-0.1,0.3-0.2,0.5-0.4c-1.3-2.1-2.2-4.5-2.4-7.1C159.2,24.3,159.1,24.2,159.1,24.1z"/>
		<path id="XMLID_5_" class="st0" d="M166.4,9.9c-0.1-0.2-0.2-0.3-0.3-0.5c-1.4,0.9-2.6,2-3.7,3.2c-0.7,0.8-1.3,1.7-1.8,2.7
			c0.2,0.1,0.3,0.2,0.5,0.3C162.3,13.3,164.1,11.3,166.4,9.9z"/>
		<path id="XMLID_4_" class="st0" d="M162.1,16.2c0.1,0.1,0.2,0.1,0.3,0.2c1.1-2,2.6-3.7,4.5-5l-0.1-0.4
			C164.8,12.4,163.2,14.1,162.1,16.2z"/>
		<path id="XMLID_3_" class="st0" d="M164,17.3C164,17.3,164.1,17.3,164,17.3c0.9-1.5,2-2.8,3.3-3.9l0-0.1
			C165.9,14.4,164.8,15.8,164,17.3z"/>
		<path id="XMLID_2_" class="st0" d="M162.7,22.9c0-1.7,0.4-3.4,1.1-4.9c0,0,0,0-0.1,0C163,19.5,162.6,21.1,162.7,22.9
			C162.6,22.9,162.7,22.9,162.7,22.9z"/>
		<path id="XMLID_1_" class="st0" d="M162.7,23.6C162.7,23.6,162.7,23.6,162.7,23.6c-0.1,0.2-0.1,0.3,0,0.5c0.2,1.8,0.7,3.6,1.6,5.1
			c0,0,0,0,0.1,0c-0.9-1.5-1.4-3.2-1.6-5C162.7,23.9,162.7,23.7,162.7,23.6z"/>
	</g>
</g>
</svg>
