<?xml version="1.0" encoding="UTF-8" standalone="no"?>
<!-- Created with Inkscape (http://www.inkscape.org/) -->

<svg
   width="132"
   height="131.99998"
   viewBox="0 0 34.924999 34.924996"
   version="1.1"
   id="svg1"
   xmlns="http://www.w3.org/2000/svg"
   xmlns:svg="http://www.w3.org/2000/svg">
  <defs
     id="defs1" />
  <g
     id="layer1"
     transform="translate(-331.78745,-35.189586)">
    <g
       id="g48">
      <path
         d="m 349.77914,44.451033 v 15.58355 h 3.59565 v -5.98207 h 1.13688 l 3.29644,5.98207 h 4.04884 l -3.62665,-6.22236 0.16175,-0.0491 c 1.13717,-0.33968 1.98091,-0.90905 2.5492,-1.71049 0.58638,-0.80626 0.87901,-1.71609 0.87901,-2.74453 0,-0.91259 -0.21412,-1.73083 -0.63872,-2.4629 v -0.002 c -0.42278,-0.74351 -1.0619,-1.32509 -1.93011,-1.75183 -0.85044,-0.42522 -1.89096,-0.64027 -3.12487,-0.64027 z m 3.59565,2.94091 h 2.52542 c 0.72902,0 1.29575,0.17902 1.6738,0.55707 0.3877,0.37257 0.58188,0.88965 0.58188,1.51722 0,0.65638 -0.19277,1.1867 -0.58188,1.56063 l -0.002,0.002 c -0.37806,0.37696 -0.94373,0.55656 -1.67173,0.55656 h -2.52542 z"
         style="fill:#d3323a;"
         id="path46-5" />
      <path
         d="m 349.51352,44.185413 v 16.11478 h 4.12688 v -5.98413 h 0.71469 l 3.29695,5.98413 h 4.66587 l -3.70313,-6.35155 c 1.09939,-0.35874 1.96451,-0.92839 2.54144,-1.74201 0.61778,-0.84944 0.92759,-1.81969 0.92759,-2.89853 0,-0.95384 -0.22338,-1.82259 -0.67179,-2.59571 -0.45024,-0.7918 -1.13538,-1.41306 -2.04329,-1.85932 v 0.002 c -0.89559,-0.4478 -1.97745,-0.66973 -3.24217,-0.66973 z m 0.26562,0.26562 h 6.34742 c 1.23391,0 2.27443,0.21505 3.12487,0.64027 0.86821,0.42674 1.50733,1.00832 1.93011,1.75183 v 0.002 c 0.4246,0.73207 0.63872,1.55031 0.63872,2.4629 0,1.02844 -0.29263,1.93827 -0.87901,2.74453 -0.56829,0.80144 -1.41203,1.37081 -2.5492,1.71049 l -0.16175,0.0491 3.62665,6.22236 h -4.04884 l -3.29644,-5.98207 h -1.13688 v 5.98207 h -3.59565 z m 3.59565,2.94091 v 4.19354 h 2.52542 c 0.728,0 1.29367,-0.1796 1.67173,-0.55656 l 0.002,-0.002 c 0.38911,-0.37393 0.58188,-0.90425 0.58188,-1.56063 0,-0.62757 -0.19418,-1.14465 -0.58188,-1.51722 -0.37805,-0.37805 -0.94478,-0.55707 -1.6738,-0.55707 z m 0.26561,0.26406 h 2.25981 c 0.68586,0 1.17394,0.16574 1.48828,0.48008 v 0.002 h 0.002 c 0.33359,0.31969 0.49971,0.75246 0.49971,1.32809 0,0.60698 -0.16751,1.05313 -0.49971,1.37149 l -0.002,0.002 c -0.31434,0.31434 -0.80242,0.48007 -1.48828,0.48007 h -2.25981 z"
         style="fill:#d3323a;"
         id="path45-2" />
      <path
         d="m 342.11346,44.450513 c -1.23391,0 -2.27289,0.21557 -3.12333,0.64079 h -0.002 c -0.86821,0.42674 -1.50682,1.00832 -1.9296,1.75183 v 0.002 c -0.4246,0.73207 -0.63665,1.55031 -0.63665,2.4629 0,1.02844 0.29057,1.93776 0.87694,2.74402 0.5683,0.80144 1.41358,1.37132 2.55075,1.711 l 0.1602,0.0491 -3.62717,6.22236 h 4.04885 l 3.29696,-5.98258 h 1.13688 v 5.98258 h 3.59564 v -15.58407 z m 0.22634,2.94143 h 2.52543 v 4.19354 h -2.52543 c -0.728,0 -1.29367,-0.1796 -1.67173,-0.55656 l -0.002,-0.002 c -0.3891,-0.37393 -0.58188,-0.90425 -0.58188,-1.56063 0,-0.62757 0.19418,-1.14517 0.58188,-1.51774 0.37806,-0.37805 0.94478,-0.55655 1.6738,-0.55655 z"
         style="fill:#d3323a;"
         id="path17-5" />
      <path
         d="m 342.11346,44.184903 c -1.26472,0 -2.34659,0.22244 -3.24218,0.67024 v -0.002 c -0.90791,0.44626 -1.59305,1.06752 -2.04329,1.85932 -0.44841,0.77312 -0.67179,1.64187 -0.67179,2.59571 0,1.07884 0.30981,2.04909 0.92759,2.89853 0.57693,0.81362 1.44154,1.38327 2.54093,1.74201 l -3.70107,6.35155 h 4.66432 l 3.29696,-5.98413 h 0.71468 v 5.98413 h 4.12688 v -16.11536 z m 0,0.26561 h 6.34741 v 15.58407 h -3.59564 v -5.98258 h -1.13688 l -3.29696,5.98258 h -4.04885 l 3.62717,-6.22236 -0.1602,-0.0491 c -1.13717,-0.33968 -1.98245,-0.90956 -2.55075,-1.711 -0.58637,-0.80626 -0.87694,-1.71558 -0.87694,-2.74402 0,-0.91259 0.21205,-1.73083 0.63665,-2.4629 v -0.002 c 0.42278,-0.74351 1.06139,-1.32509 1.9296,-1.75183 h 0.002 c 0.85044,-0.42522 1.88942,-0.64079 3.12333,-0.64079 z m 0.22634,2.94143 c -0.72902,0 -1.29574,0.1785 -1.6738,0.55655 -0.3877,0.37257 -0.58188,0.89017 -0.58188,1.51774 0,0.65638 0.19278,1.1867 0.58188,1.56063 l 0.002,0.002 c 0.37806,0.37696 0.94373,0.55656 1.67173,0.55656 h 2.52543 v -4.19354 z m 0,0.26355 h 2.25981 v 3.66437 h -2.25981 c -0.68586,0 -1.17187,-0.16625 -1.48621,-0.48059 h -0.002 l -0.002,-0.002 c -0.33221,-0.31835 -0.49971,-0.76399 -0.49971,-1.37097 0,-0.57563 0.16612,-1.0084 0.49971,-1.32809 h 0.002 l 0.002,-0.002 c 0.31434,-0.31434 0.80035,-0.48059 1.48621,-0.48059 z"
         style="fill:#d3323a;"
         id="path16-4" />
      <circle
         style="fill:none;stroke:#d3323a;stroke-width:1.05833;stroke-dasharray:none;stroke-opacity:1"
         id="path1-4-4-3-1-7"
         cx="349.24997"
         cy="52.652084"
         r="16.933332" />
    </g>
  </g>
</svg>
