<?xml version="1.0" encoding="UTF-8" standalone="no"?>
<!-- Created with Inkscape (http://www.inkscape.org/) -->

<svg
   width="148"
   height="148"
   viewBox="0 0 39.158332 39.158333"
   version="1.1"
   id="svg1"
   xmlns="http://www.w3.org/2000/svg"
   xmlns:svg="http://www.w3.org/2000/svg">
  <defs
     id="defs1" />
  <g
     id="layer1"
     transform="translate(-342.63541,-182.82709)">
    <g
       id="g50">
      <circle
         style="fill:#d3323a;fill-opacity:1;stroke:none;stroke-width:0;stroke-dasharray:none;stroke-opacity:1"
         id="path9-9-6"
         cx="362.21457"
         cy="202.40625"
         r="19.579166" />
      <path
         d="m 362.74426,194.20519 v 15.58407 h 3.59565 v -5.98258 h 1.13688 l 3.29644,5.98258 h 4.04885 l -3.62665,-6.22288 0.16019,-0.0486 c 1.13715,-0.33967 1.98038,-0.90956 2.54868,-1.711 h 0.002 c 0.58638,-0.80627 0.87695,-1.71558 0.87695,-2.74402 0,-0.9126 -0.21205,-1.73084 -0.63665,-2.4629 v -0.002 c -0.42277,-0.74351 -1.06139,-1.32509 -1.9296,-1.75183 h -0.002 c -0.85043,-0.42522 -1.88942,-0.64078 -3.12332,-0.64079 z m 3.59565,2.94143 h 2.52542 c 0.72902,0 1.29575,0.1785 1.6738,0.55655 0.3877,0.37257 0.57981,0.8881 0.57981,1.51567 0,0.65639 -0.1907,1.18876 -0.57981,1.5627 l -0.002,0.002 c -0.37805,0.37697 -0.94374,0.555 -1.67174,0.555 h -2.52542 z"
         style="font-weight:bold;font-size:22.5779px;font-family:Poppins;-inkscape-font-specification:'Poppins Bold';baseline-shift:baseline;display:inline;overflow:visible;vector-effect:none;fill:#ffffff;enable-background:accumulate;stop-color:#000000;stop-opacity:1"
         id="path50" />
      <path
         d="m 362.47864,193.93958 v 16.11529 h 4.12482 v -5.98465 h 0.71675 l 3.29489,5.98465 h 4.66638 l -3.70158,-6.35155 c 1.09886,-0.35857 1.96247,-0.92898 2.53938,-1.74201 0.61778,-0.84944 0.92966,-1.81969 0.92966,-2.89853 0,-0.95385 -0.22545,-1.82258 -0.67386,-2.59571 -0.45001,-0.79079 -1.13448,-1.41335 -2.04122,-1.85932 h -0.002 c -0.89528,-0.44728 -1.97612,-0.66817 -3.24011,-0.66817 z m 0.26562,0.26561 h 6.34742 c 1.2339,1e-5 2.27289,0.21557 3.12332,0.64079 h 0.002 c 0.86821,0.42674 1.50683,1.00832 1.9296,1.75183 v 0.002 c 0.4246,0.73206 0.63665,1.5503 0.63665,2.4629 0,1.02844 -0.29057,1.93775 -0.87695,2.74402 h -0.002 c -0.5683,0.80144 -1.41153,1.37133 -2.54868,1.711 l -0.16019,0.0486 3.62665,6.22288 h -4.04885 l -3.29644,-5.98258 h -1.13688 v 5.98258 h -3.59565 z m 3.59565,2.94143 v 4.19147 h 2.52542 c 0.728,0 1.29369,-0.17803 1.67174,-0.555 l 0.002,-0.002 c 0.38911,-0.37394 0.57981,-0.90631 0.57981,-1.5627 0,-0.62757 -0.19211,-1.1431 -0.57981,-1.51567 -0.37805,-0.37805 -0.94478,-0.55655 -1.6738,-0.55655 z m 0.26355,0.26355 h 2.26187 c 0.68586,0 1.17189,0.16626 1.48622,0.48059 l 0.002,0.002 c 0.33358,0.31969 0.50177,0.7504 0.50177,1.32602 0,0.60698 -0.16957,1.05468 -0.50177,1.37304 l -0.002,0.002 c -0.31433,0.31433 -0.80036,0.48059 -1.48622,0.48059 h -2.26187 z"
         style="font-weight:bold;font-size:22.5779px;font-family:Poppins;-inkscape-font-specification:'Poppins Bold';baseline-shift:baseline;display:inline;overflow:visible;vector-effect:none;fill:#ffffff;enable-background:accumulate;stop-color:#000000;stop-opacity:1"
         id="path49" />
      <path
         d="m 355.07858,194.20519 c -1.2339,1e-5 -2.27495,0.21506 -3.12539,0.64028 -0.8682,0.42673 -1.50683,1.00883 -1.9296,1.75234 l -0.002,0.002 c -0.4246,0.73206 -0.63665,1.5503 -0.63665,2.4629 0,1.02844 0.29265,1.93827 0.87902,2.74454 0.5683,0.80144 1.41152,1.37133 2.54868,1.711 l 0.16226,0.0486 -3.62665,6.22288 h 4.04833 l 3.29696,-5.98258 h 1.13688 v 5.98258 h 3.59565 v -15.58407 z m 0.22634,2.94143 h 2.52543 v 4.19147 h -2.52543 c -0.72826,0 -1.29575,-0.17983 -1.6738,-0.55707 h -0.002 c -0.38911,-0.37394 -0.57981,-0.90579 -0.57981,-1.56218 0,-0.62757 0.19211,-1.1431 0.57981,-1.51567 h 5.1e-4 5.2e-4 5.2e-4 5.1e-4 c 0.37805,-0.37724 0.94554,-0.55655 1.6738,-0.55655 z"
         style="font-weight:bold;font-size:22.5779px;font-family:Poppins;-inkscape-font-specification:'Poppins Bold';baseline-shift:baseline;display:inline;overflow:visible;vector-effect:none;fill:#ffffff;enable-background:accumulate;stop-color:#000000;stop-opacity:1"
         id="path48" />
      <path
         d="m 355.07858,193.93958 c -1.26472,0 -2.34659,0.21986 -3.24218,0.66766 -0.90791,0.44626 -1.59306,1.06753 -2.04329,1.85931 -0.44841,0.77313 -0.67179,1.64186 -0.67179,2.59571 0,1.07884 0.30981,2.04909 0.92759,2.89853 0.5769,0.81358 1.44008,1.38379 2.53938,1.74253 l -3.70106,6.35155 h 4.66586 l 3.29696,-5.98465 h 0.71468 v 5.98465 h 4.12482 v -16.11529 z m 0,0.26561 h 6.34742 v 15.58407 h -3.59565 v -5.98258 h -1.13688 l -3.29696,5.98258 h -4.04833 l 3.62665,-6.22288 -0.16226,-0.0486 c -1.13716,-0.33967 -1.98038,-0.90956 -2.54868,-1.711 -0.58637,-0.80627 -0.87902,-1.7161 -0.87902,-2.74454 0,-0.9126 0.21205,-1.73084 0.63665,-2.4629 l 0.002,-0.002 c 0.42277,-0.74351 1.0614,-1.32561 1.9296,-1.75234 0.85044,-0.42522 1.89149,-0.64027 3.12539,-0.64028 z m 0.22634,2.94143 c -0.72826,0 -1.29575,0.17931 -1.6738,0.55655 0,0 -5.1e-4,0 -5.1e-4,0 0,0 -5.2e-4,0 -5.2e-4,0 0,0 -5.2e-4,0 -5.2e-4,0 0,0 -5.1e-4,0 -5.1e-4,0 -0.3877,0.37257 -0.57981,0.8881 -0.57981,1.51567 0,0.65639 0.1907,1.18824 0.57981,1.56218 h 0.002 c 0.37805,0.37724 0.94554,0.55707 1.6738,0.55707 h 2.52543 v -4.19147 z m 0,0.26355 h 2.25981 v 3.66386 h -2.25981 c -0.68586,0 -1.17395,-0.16575 -1.48828,-0.48008 v -0.002 h -0.002 c -0.3322,-0.31836 -0.49971,-0.76606 -0.49971,-1.37304 0,-0.57562 0.16613,-1.00633 0.49971,-1.32602 h 0.002 v -0.002 c 0.31433,-0.31433 0.80242,-0.48059 1.48828,-0.48059 z"
         style="font-weight:bold;font-size:22.5779px;font-family:Poppins;-inkscape-font-specification:'Poppins Bold';baseline-shift:baseline;display:inline;overflow:visible;vector-effect:none;fill:#ffffff;enable-background:accumulate;stop-color:#000000;stop-opacity:1"
         id="path47" />
      <circle
         style="fill:none;stroke:#ffffff;stroke-width:1.5875;stroke-dasharray:none;stroke-opacity:1"
         id="path1-4-4-6-9-74-6"
         cx="362.21457"
         cy="202.40625"
         r="16.933332" />
    </g>
  </g>
</svg>
