<?xml version="1.0" encoding="UTF-8" standalone="no"?>
<!-- Created with Inkscape (http://www.inkscape.org/) -->

<svg
   width="148"
   height="148.00006"
   viewBox="0 0 39.158332 39.158349"
   version="1.1"
   id="svg1"
   xmlns="http://www.w3.org/2000/svg"
   xmlns:svg="http://www.w3.org/2000/svg">
  <defs
     id="defs1" />
  <g
     id="layer1"
     transform="translate(-245.40701,-215.84028)">
    <path
       style="fill:#d3323a;stroke-width:0"
       d="m 284.56534,235.41945 a 19.579166,19.579166 0 0 1 -19.57916,19.57917 19.579166,19.579166 0 0 1 -19.57917,-19.57917 19.579166,19.579166 0 0 1 19.57917,-19.57917 19.579166,19.579166 0 0 1 19.57916,19.57917 z"
       id="path9-9-4-6" />
    <path
       style="font-weight:bold;font-size:22.5779px;font-family:Poppins;-inkscape-font-specification:'Poppins Bold';baseline-shift:baseline;display:inline;overflow:visible;vector-effect:none;fill:#ffffff;enable-background:accumulate;stop-color:#000000"
       d="m 265.51557,227.7463 v 15.58561 h 3.59565 v -5.98413 h 1.13688 l 3.29696,5.98413 h 4.04884 l -3.62716,-6.22236 0.16226,-0.0491 c 1.13716,-0.33968 1.98039,-0.90956 2.54868,-1.711 v -0.002 c 0.58638,-0.80627 0.87902,-1.7161 0.87902,-2.74454 0,-0.9126 -0.21412,-1.73083 -0.63872,-2.4629 -0.42278,-0.7435 -1.06138,-1.32508 -1.9296,-1.75183 v -0.002 h -0.002 c -0.85044,-0.42522 -1.88889,-0.64027 -3.1228,-0.64027 z m 6.12108,2.94091 c 0.72902,0 1.29574,0.18057 1.6738,0.55862 0.38769,0.37257 0.58239,0.88811 0.58239,1.51567 0,0.65639 -0.19329,1.18669 -0.58239,1.56063 l -0.002,0.002 c -0.37805,0.37697 -0.94373,0.55655 -1.67173,0.55655 h -2.52543 v -4.19303 z"
       id="path15" />
    <path
       style="font-weight:bold;font-size:22.5779px;font-family:Poppins;-inkscape-font-specification:'Poppins Bold';baseline-shift:baseline;display:inline;overflow:visible;vector-effect:none;enable-background:accumulate;stop-color:#000000"
       d="m 265.24996,227.48224 v 16.11322 h 4.12688 v -5.98206 h 0.7152 l 3.29644,5.98206 h 4.66431 l -3.70106,-6.34948 c 1.09943,-0.35873 1.96398,-0.93044 2.54093,-1.74408 0.61703,-0.84907 0.92759,-1.82035 0.92759,-2.89853 0,-0.95385 -0.22339,-1.82052 -0.6718,-2.59364 -0.45024,-0.7918 -1.13485,-1.41306 -2.04277,-1.85932 -0.89559,-0.44779 -1.97745,-0.66817 -3.24217,-0.66817 z m 0.26561,0.26406 h 6.34794 c 1.23391,0 2.27236,0.21505 3.1228,0.64027 h 0.002 v 0.002 c 0.86822,0.42675 1.50682,1.00833 1.9296,1.75183 0.4246,0.73207 0.63872,1.5503 0.63872,2.4629 0,1.02844 -0.29264,1.93827 -0.87902,2.74454 v 0.002 c -0.56829,0.80144 -1.41152,1.37132 -2.54868,1.711 l -0.16226,0.0491 3.62716,6.22236 h -4.04884 l -3.29696,-5.98413 h -1.13688 v 5.98413 h -3.59565 z"
       id="path51" />
    <path
       style="font-weight:bold;font-size:22.5779px;font-family:Poppins;-inkscape-font-specification:'Poppins Bold';baseline-shift:baseline;display:inline;overflow:visible;vector-effect:none;enable-background:accumulate;stop-color:#000000"
       d="m 271.63665,230.68721 -2.52543,5.1e-4 v 4.19303 h 2.52543 c 0.728,0 1.29368,-0.17958 1.67173,-0.55655 l 0.002,-0.002 c 0.3891,-0.37394 0.58239,-0.90424 0.58239,-1.56063 0,-0.62756 -0.1947,-1.1431 -0.58239,-1.51567 -0.37806,-0.37805 -0.94478,-0.55862 -1.6738,-0.55862 z m -2.25981,0.26613 h 2.25981 c 0.68586,0 1.17394,0.16575 1.48828,0.48008 l 0.002,0.002 c 0.33359,0.31968 0.50023,0.75092 0.50023,1.32654 0,0.60698 -0.16802,1.05468 -0.50023,1.37304 h -0.002 v 0.002 c -0.31434,0.31433 -0.80242,0.48059 -1.48828,0.48059 h -2.25981 z"
       id="path14" />
    <path
       style="font-weight:bold;font-size:22.5779px;font-family:Poppins;-inkscape-font-specification:'Poppins Bold';baseline-shift:baseline;display:inline;overflow:visible;vector-effect:none;fill:#ffffff;enable-background:accumulate;stop-color:#000000"
       d="m 257.84937,227.74579 c -1.23391,0 -2.27443,0.21556 -3.12487,0.64078 v 0.002 c -0.86822,0.42675 -1.50682,1.00833 -1.9296,1.75183 -0.4246,0.73207 -0.63872,1.5503 -0.63872,2.4629 0,1.02844 0.29264,1.93775 0.87902,2.74402 v 0.002 c 0.56829,0.80144 1.41152,1.37132 2.54868,1.711 l 0.16226,0.0491 -3.62717,6.22236 h 4.04885 l 3.29696,-5.98413 h 1.13688 v 5.98413 h 3.59565 V 227.7463 h -6.34794 z m 0.22686,2.94193 h 2.52543 v 4.19303 h -2.52543 c -0.728,0 -1.29368,-0.17958 -1.67173,-0.55655 v -5.2e-4 -5.2e-4 -5.2e-4 -5.1e-4 h -5.2e-4 -5.1e-4 -5.2e-4 -5.2e-4 c -0.3891,-0.37394 -0.58187,-0.90424 -0.58187,-1.56063 0,-0.62854 0.19503,-1.14452 0.58394,-1.51722 0.37805,-0.37697 0.94373,-0.55656 1.67173,-0.55656 z"
       id="path9" />
    <path
       style="font-weight:bold;font-size:22.5779px;font-family:Poppins;-inkscape-font-specification:'Poppins Bold';baseline-shift:baseline;display:inline;overflow:visible;vector-effect:none;enable-background:accumulate;stop-color:#000000"
       d="m 257.84937,227.48224 c -1.26472,0 -2.34659,0.22038 -3.24218,0.66817 -0.90792,0.44626 -1.59252,1.06752 -2.04276,1.85932 -0.44841,0.77312 -0.6718,1.63979 -0.6718,2.59364 0,1.07818 0.31056,2.04946 0.92759,2.89853 0.57695,0.81364 1.4415,1.38535 2.54093,1.74408 l -3.70313,6.34948 h 4.66638 l 3.29644,-5.98206 h 0.7152 v 5.98206 h 4.12688 v -16.11322 z m 0,0.26355 v 5.1e-4 h 6.34794 v 15.58561 h -3.59565 v -5.98413 h -1.13688 l -3.29696,5.98413 h -4.04885 l 3.62717,-6.22236 -0.16226,-0.0491 c -1.13716,-0.33968 -1.98039,-0.90956 -2.54868,-1.711 v -0.002 c -0.58638,-0.80627 -0.87902,-1.71558 -0.87902,-2.74402 0,-0.9126 0.21412,-1.73083 0.63872,-2.4629 0.42278,-0.7435 1.06138,-1.32508 1.9296,-1.75183 v -0.002 c 0.85044,-0.42522 1.89096,-0.64078 3.12487,-0.64078 z"
       id="path52" />
    <path
       style="font-weight:bold;font-size:22.5779px;font-family:Poppins;-inkscape-font-specification:'Poppins Bold';baseline-shift:baseline;display:inline;overflow:visible;vector-effect:none;enable-background:accumulate;stop-color:#000000"
       d="m 258.07623,230.68772 c -0.728,0 -1.29368,0.17959 -1.67173,0.55656 -0.38891,0.3727 -0.58394,0.88868 -0.58394,1.51722 0,0.65639 0.19277,1.18669 0.58187,1.56063 0,0 5.2e-4,0 5.2e-4,0 0,0 5.2e-4,0 5.2e-4,0 0,0 5.1e-4,0 5.1e-4,0 0,0 5.2e-4,0 5.2e-4,0 0,0 0,5.1e-4 0,5.1e-4 0,0 0,5.2e-4 0,5.2e-4 0,0 0,5.2e-4 0,5.2e-4 0,0 0,5.2e-4 0,5.2e-4 0.37805,0.37697 0.94373,0.55655 1.67173,0.55655 h 2.52543 v -4.19303 z m 0,0.2651 v 5.2e-4 h 2.25981 v 3.66386 h -2.25981 c -0.68587,0 -1.17395,-0.16626 -1.48828,-0.48059 v -0.002 h -0.002 c -0.33221,-0.31836 -0.50023,-0.76606 -0.50023,-1.37304 0,-0.57562 0.16664,-1.00634 0.50023,-1.32602 l 0.002,-0.002 c 0.31433,-0.31433 0.80241,-0.4806 1.48828,-0.4806 z"
       id="path8" />
    <path
       style="baseline-shift:baseline;display:inline;overflow:visible;opacity:1;vector-effect:none;enable-background:accumulate;stop-color:#000000;stop-opacity:1"
       d="m 264.98633,217.95703 c -9.63801,0 -17.46289,7.82489 -17.46289,17.46289 0,9.63801 7.82488,17.4629 17.46289,17.46289 9.638,0 17.46289,-7.82489 17.46289,-17.46289 0,-9.638 -7.82489,-17.46289 -17.46289,-17.46289 z m 0,1.05859 c 9.06604,10e-6 16.40429,7.33826 16.40429,16.4043 0,9.06604 -7.33825,16.4043 -16.40429,16.4043 -9.06604,0 -16.4043,-7.33826 -16.4043,-16.4043 0,-9.06604 7.33826,-16.4043 16.4043,-16.4043 z"
       id="path1-4-4-6-9-74-9-2" />
  </g>
</svg>
