<svg xmlns="http://www.w3.org/2000/svg" width="134" height="134" viewBox="0 0 35.454 35.454"><path d="M266.7 82.02v15.586h3.597v-5.983h1.135l3.297 5.983h4.049l-3.627-6.223.162-.049c1.137-.34 1.98-.91 2.549-1.71.586-.807.879-1.718.879-2.747 0-.912-.212-1.728-.637-2.46v-.003c-.423-.743-1.063-1.325-1.932-1.751-.85-.426-1.891-.643-3.125-.643zm3.597 2.943h2.526c.729 0 1.295.179 1.673.557.388.372.58.888.58 1.516 0 .656-.19 1.188-.58 1.562l-.002.002c-.378.377-.943.555-1.671.555h-2.526z" style="font-weight:700;font-size:22.5779px;font-family:Poppins;-inkscape-font-specification:&quot;Poppins Bold&quot;;baseline-shift:baseline;display:inline;overflow:visible;vector-effect:none;fill:#d3323a;enable-background:accumulate;stop-color:#000;stop-opacity:1" transform="translate(-248.444 -72.496)"/><path d="M266.436 81.756v16.116h4.125v-5.985h.714l3.297 5.985h4.667l-3.702-6.352c1.1-.359 1.963-.93 2.54-1.743.617-.849.927-1.82.927-2.9 0-.953-.223-1.82-.672-2.593-.45-.792-1.135-1.413-2.043-1.86-.896-.447-1.977-.668-3.242-.668zm.263.264h6.348c1.234 0 2.275.217 3.125.643.868.426 1.51 1.008 1.932 1.751v.003c.425.732.637 1.548.637 2.46 0 1.029-.293 1.94-.88 2.747-.568.8-1.41 1.37-2.548 1.71l-.162.05 3.627 6.222h-4.049l-3.297-5.983h-1.135v5.983H266.7zm3.598 2.943v4.192h2.526c.728 0 1.293-.178 1.671-.555l.002-.002c.39-.374.58-.906.58-1.563 0-.627-.192-1.143-.58-1.515-.378-.378-.944-.557-1.673-.557zm.264.264h2.262c.685 0 1.172.166 1.486.48v.003h.002c.333.32.5.75.5 1.326 0 .607-.168 1.054-.5 1.373h-.002v.002c-.314.314-.8.48-1.486.48h-2.262z" transform="translate(-248.444 -72.496)"/><path d="M259.035 82.02c-1.234 0-2.274.217-3.125.643h-.002c-.868.426-1.506 1.008-1.93 1.751v.003c-.424.732-.636 1.548-.636 2.46 0 1.029.29 1.94.877 2.747h.002c.568.8 1.412 1.37 2.549 1.71l.16.05-3.627 6.222h4.049l3.299-5.983h1.135v5.983h3.597V82.02Zm.225 2.943h2.526v4.192h-2.526c-.728 0-1.294-.178-1.672-.555l-.002-.002c-.39-.374-.58-.906-.58-1.563 0-.627.192-1.143.58-1.515.378-.378.945-.557 1.674-.557z" style="font-weight:700;font-size:22.5779px;font-family:Poppins;-inkscape-font-specification:&quot;Poppins Bold&quot;;baseline-shift:baseline;display:inline;overflow:visible;vector-effect:none;fill:#d3323a;enable-background:accumulate;stop-color:#000;stop-opacity:1" transform="translate(-248.444 -72.496)"/><path d="M259.035 81.756c-1.264 0-2.347.221-3.242.668h-.002c-.907.446-1.59 1.069-2.04 1.86-.449.773-.674 1.64-.674 2.593 0 1.08.311 2.051.93 2.9.576.813 1.44 1.384 2.538 1.743l-3.7 6.352h4.665l3.297-5.985h.715v5.985h4.125V81.756Zm0 .264h6.348v15.586h-3.597v-5.983h-1.135l-3.3 5.983h-4.048l3.627-6.223-.16-.049c-1.137-.34-1.98-.91-2.549-1.71h-.002c-.586-.807-.877-1.718-.877-2.747 0-.912.212-1.728.637-2.46v-.003c.423-.743 1.061-1.325 1.93-1.751h.001c.85-.426 1.891-.643 3.125-.643zm.225 2.943c-.729 0-1.296.179-1.674.557-.387.372-.58.888-.58 1.516 0 .656.191 1.188.58 1.562l.002.002c.378.377.945.555 1.673.555h2.525v-4.192zm0 .264h2.261v3.664h-2.26c-.687 0-1.173-.166-1.487-.48l-.002-.002c-.332-.319-.502-.767-.502-1.374 0-.575.168-1.006.502-1.326l.002-.002c.314-.314.8-.48 1.486-.48z" transform="translate(-248.444 -72.496)"/><path d="M283.104 90.223a16.933 16.933 0 0 1-16.933 16.933 16.933 16.933 0 0 1-16.934-16.933 16.933 16.933 0 0 1 16.934-16.933 16.933 16.933 0 0 1 16.933 16.933Z" style="fill:none;stroke:#000;stroke-width:1.5875" transform="translate(-248.444 -72.496)"/></svg>
