<svg xmlns="http://www.w3.org/2000/svg" width="132" height="132" viewBox="0 0 34.925 34.925"><g transform="translate(-331.787 -35.19)"><path d="M349.78 44.451v15.584h3.595v-5.982h1.137l3.296 5.982h4.049l-3.627-6.223.162-.049c1.137-.34 1.981-.909 2.55-1.71.586-.807.878-1.716.878-2.745 0-.912-.214-1.73-.638-2.463v-.002c-.423-.743-1.062-1.325-1.93-1.752-.851-.425-1.892-.64-3.125-.64zm3.595 2.94h2.525c.73 0 1.296.18 1.674.558.388.373.582.89.582 1.517 0 .657-.193 1.187-.582 1.56l-.002.003c-.378.377-.944.556-1.672.556h-2.525z" style="fill:#d3323a"/><path d="M349.514 44.185V60.3h4.126v-5.984h.715l3.297 5.984h4.666l-3.703-6.351c1.1-.36 1.964-.929 2.541-1.742.618-.85.928-1.82.928-2.899 0-.954-.224-1.822-.672-2.596-.45-.791-1.135-1.413-2.043-1.859v.002c-.896-.448-1.978-.67-3.242-.67zm.265.266h6.348c1.233 0 2.274.215 3.124.64.869.427 1.508 1.009 1.93 1.752v.002c.425.732.64 1.55.64 2.463 0 1.028-.293 1.938-.88 2.745-.568.801-1.412 1.37-2.549 1.71l-.162.05 3.627 6.222h-4.049l-3.296-5.983h-1.137v5.983h-3.596zm3.596 2.94v4.194h2.525c.728 0 1.294-.18 1.672-.556l.002-.002c.39-.374.582-.904.582-1.56 0-.628-.194-1.145-.582-1.518-.378-.378-.945-.557-1.674-.557zm.265.265h2.26c.686 0 1.174.166 1.488.48v.002h.002c.334.32.5.753.5 1.328 0 .607-.167 1.053-.5 1.372l-.002.002c-.314.314-.802.48-1.488.48h-2.26zM342.113 44.45c-1.233 0-2.272.216-3.123.641h-.002c-.868.427-1.507 1.009-1.93 1.752v.002c-.424.732-.636 1.55-.636 2.463 0 1.028.29 1.938.877 2.744.568.801 1.413 1.371 2.55 1.711l.16.05-3.626 6.222h4.048l3.297-5.983h1.137v5.983h3.596V44.45zm.227 2.942h2.525v4.193h-2.525c-.728 0-1.294-.18-1.672-.556l-.002-.002c-.389-.374-.582-.904-.582-1.56 0-.628.194-1.146.582-1.518.378-.378.945-.557 1.674-.557z" style="fill:#d3323a"/><path d="M342.113 44.185c-1.264 0-2.346.222-3.242.67v-.002c-.908.446-1.593 1.068-2.043 1.86-.448.773-.672 1.641-.672 2.595 0 1.079.31 2.05.928 2.899.577.813 1.441 1.383 2.54 1.742l-3.7 6.351h4.664l3.297-5.984h.715V60.3h4.126V44.185zm0 .266h6.348v15.584h-3.596v-5.983h-1.137l-3.297 5.983h-4.048l3.627-6.223-.16-.049c-1.138-.34-1.983-.91-2.551-1.71-.587-.807-.877-1.716-.877-2.745 0-.912.212-1.73.636-2.463v-.002c.423-.743 1.062-1.325 1.93-1.752h.002c.85-.425 1.89-.64 3.123-.64zm.227 2.94c-.73 0-1.296.18-1.674.557-.388.373-.582.89-.582 1.518 0 .657.193 1.187.582 1.56l.002.003c.378.377.944.556 1.672.556h2.525v-4.193zm0 .264h2.26v3.665h-2.26c-.686 0-1.172-.166-1.486-.48h-.002l-.002-.003c-.333-.318-.5-.764-.5-1.37 0-.576.166-1.01.5-1.329h.002l.002-.002c.314-.314.8-.48 1.486-.48z" style="fill:#d3323a"/><circle cx="349.25" cy="52.652" r="16.933" style="fill:none;stroke:#d3323a;stroke-width:1.05833;stroke-dasharray:none;stroke-opacity:1"/></g></svg>