<svg xmlns="http://www.w3.org/2000/svg" width="148" height="148" viewBox="0 0 39.158 39.158"><path d="M284.565 235.42a19.58 19.58 0 0 1-19.579 19.579 19.58 19.58 0 0 1-19.579-19.58 19.58 19.58 0 0 1 19.58-19.579 19.58 19.58 0 0 1 19.578 19.58z" style="fill:#d3323a;stroke-width:0" transform="translate(-245.407 -215.84)"/><path d="M265.516 227.746v15.586h3.595v-5.984h1.137l3.297 5.984h4.049l-3.627-6.222.162-.05c1.137-.34 1.98-.91 2.549-1.71v-.003c.586-.806.879-1.716.879-2.744 0-.913-.214-1.73-.639-2.463-.423-.743-1.061-1.325-1.93-1.752v-.002h-.002c-.85-.425-1.889-.64-3.122-.64zm6.12 2.941c.73 0 1.296.18 1.674.559.388.372.583.888.583 1.515 0 .657-.193 1.187-.583 1.561l-.002.002c-.378.377-.943.557-1.671.557h-2.526v-4.193z" style="font-weight:700;font-size:22.5779px;font-family:Poppins;-inkscape-font-specification:&quot;Poppins Bold&quot;;baseline-shift:baseline;display:inline;overflow:visible;vector-effect:none;fill:#fff;enable-background:accumulate;stop-color:#000" transform="translate(-245.407 -215.84)"/><path d="M265.25 227.482v16.113h4.127v-5.982h.715l3.296 5.982h4.665l-3.701-6.349c1.1-.359 1.964-.93 2.54-1.744.618-.85.928-1.82.928-2.899 0-.953-.223-1.82-.672-2.593-.45-.792-1.134-1.413-2.042-1.86-.896-.447-1.978-.668-3.242-.668zm.266.264h6.348c1.233 0 2.272.215 3.122.64h.002v.003c.869.426 1.507 1.008 1.93 1.751.425.732.639 1.55.639 2.463 0 1.029-.293 1.939-.88 2.745v.002c-.568.801-1.41 1.371-2.548 1.71l-.162.05 3.627 6.222h-4.049l-3.297-5.984h-1.137v5.984h-3.596z" transform="translate(-245.407 -215.84)"/><path d="M271.637 230.687h-2.526v4.194h2.526c.728 0 1.293-.18 1.671-.557l.002-.002c.39-.374.583-.904.583-1.56 0-.628-.195-1.144-.583-1.516-.378-.378-.944-.559-1.673-.559zm-2.26.266h2.26c.686 0 1.174.166 1.488.48l.002.002c.334.32.5.751.5 1.327 0 .607-.168 1.055-.5 1.373h-.002v.002c-.314.314-.802.48-1.488.48h-2.26z" transform="translate(-245.407 -215.84)"/><path d="M257.85 227.746c-1.235 0-2.275.215-3.126.64v.003c-.868.426-1.506 1.008-1.93 1.751-.424.732-.638 1.55-.638 2.463 0 1.029.293 1.938.88 2.744v.002c.567.802 1.41 1.372 2.548 1.711l.162.05-3.627 6.222h4.049l3.297-5.984h1.137v5.984h3.595v-15.586h-6.348zm.226 2.942h2.526v4.193h-2.526c-.728 0-1.293-.18-1.672-.557v-.001h-.001c-.39-.375-.582-.905-.582-1.561 0-.629.195-1.145.583-1.518.379-.377.944-.556 1.672-.556z" style="font-weight:700;font-size:22.5779px;font-family:Poppins;-inkscape-font-specification:&quot;Poppins Bold&quot;;baseline-shift:baseline;display:inline;overflow:visible;vector-effect:none;fill:#fff;enable-background:accumulate;stop-color:#000" transform="translate(-245.407 -215.84)"/><path d="M257.85 227.482c-1.265 0-2.347.22-3.243.668-.908.447-1.592 1.068-2.043 1.86-.448.773-.671 1.64-.671 2.593 0 1.079.31 2.05.927 2.899.577.814 1.442 1.385 2.541 1.744l-3.703 6.35h4.666l3.297-5.983h.715v5.982h4.127v-16.113zm0 .264h6.347v15.586h-3.595v-5.984h-1.137l-3.297 5.984h-4.049l3.627-6.222-.162-.05c-1.137-.34-1.98-.91-2.549-1.71v-.003c-.586-.806-.879-1.715-.879-2.744 0-.912.214-1.73.639-2.462.423-.744 1.061-1.326 1.93-1.752v-.002c.85-.426 1.89-.641 3.124-.641z" transform="translate(-245.407 -215.84)"/><path d="M258.076 230.688c-.728 0-1.293.18-1.672.556-.388.373-.583.889-.583 1.518 0 .656.192 1.186.581 1.56h.002v.002c.379.377.944.557 1.672.557h2.526v-4.193zm0 .265h2.26v3.664h-2.26c-.686 0-1.174-.166-1.488-.48v-.002h-.002c-.332-.319-.5-.766-.5-1.373 0-.576.166-1.007.5-1.326l.002-.002c.314-.315.802-.481 1.488-.481z" transform="translate(-245.407 -215.84)"/><path d="M264.986 217.957c-9.638 0-17.463 7.825-17.463 17.463 0 9.638 7.825 17.463 17.463 17.463 9.638 0 17.463-7.825 17.463-17.463 0-9.638-7.825-17.463-17.463-17.463zm0 1.059c9.066 0 16.405 7.338 16.405 16.404 0 9.066-7.339 16.404-16.405 16.404s-16.404-7.338-16.404-16.404c0-9.066 7.338-16.404 16.404-16.404z" style="baseline-shift:baseline;display:inline;overflow:visible;opacity:1;vector-effect:none;enable-background:accumulate;stop-color:#000;stop-opacity:1" transform="translate(-245.407 -215.84)"/></svg>
