<svg xmlns="http://www.w3.org/2000/svg" width="148" height="148" viewBox="0 0 39.158 39.158"><g transform="translate(-342.635 -182.827)"><circle cx="362.215" cy="202.406" r="19.579" style="fill:#bd2830;fill-opacity:1;stroke:none;stroke-width:0;stroke-dasharray:none;stroke-opacity:1"/><path d="M362.744 194.205v15.584h3.596v-5.982h1.137l3.296 5.982h4.05l-3.628-6.223.16-.048c1.138-.34 1.981-.91 2.55-1.711h.001c.587-.806.877-1.716.877-2.744 0-.913-.212-1.731-.636-2.463v-.002c-.423-.744-1.062-1.325-1.93-1.752h-.002c-.85-.425-1.89-.64-3.123-.64zm3.596 2.942h2.525c.73 0 1.296.178 1.674.556.388.373.58.888.58 1.516 0 .656-.19 1.189-.58 1.563l-.002.002c-.378.377-.944.555-1.672.555h-2.525zM355.079 194.205c-1.234 0-2.275.215-3.126.64-.868.427-1.507 1.01-1.93 1.753l-.001.002c-.425.732-.637 1.55-.637 2.463 0 1.028.293 1.938.879 2.744.568.802 1.411 1.372 2.549 1.711l.162.049-3.627 6.223h4.049l3.297-5.983h1.136v5.983h3.596v-15.584zm.226 2.942h2.525v4.191h-2.525c-.728 0-1.296-.18-1.674-.557h-.002c-.389-.374-.58-.906-.58-1.562 0-.628.192-1.143.58-1.516h.002c.378-.377.946-.556 1.674-.556z" style="fill:#fff"/><circle cx="362.215" cy="202.406" r="16.933" style="fill:none;stroke:#fff;stroke-width:1.5875;stroke-dasharray:none;stroke-opacity:1"/></g></svg>
