<svg xmlns="http://www.w3.org/2000/svg" width="148" height="148" viewBox="0 0 39.158 39.158"><g transform="translate(-277.019 -142.081)"><circle cx="296.598" cy="161.66" r="19.579" style="fill:#fff;fill-opacity:1;stroke:none;stroke-width:0;stroke-dasharray:none;stroke-opacity:1"/><path d="M297.127 153.989v15.583h3.596v-5.982h1.137l3.296 5.982h4.049l-3.627-6.222.162-.05c1.137-.34 1.98-.908 2.55-1.71.586-.806.878-1.716.878-2.744 0-.913-.214-1.731-.639-2.463v-.002c-.422-.744-1.061-1.325-1.93-1.752-.85-.425-1.89-.64-3.125-.64zm3.596 2.94h2.525c.73 0 1.296.18 1.674.558.388.372.582.89.582 1.517 0 .656-.193 1.186-.582 1.56l-.002.002c-.378.377-.944.557-1.672.557h-2.525z" style="fill:#d3323a"/><path d="M296.861 153.723v16.115h4.127v-5.984h.715l3.297 5.984h4.666l-3.703-6.352c1.1-.359 1.964-.928 2.541-1.742.618-.85.928-1.82.928-2.898 0-.954-.224-1.823-.672-2.596-.45-.792-1.135-1.413-2.043-1.86v.003c-.896-.448-1.978-.67-3.242-.67zm.266.266h6.348c1.233 0 2.274.215 3.124.64.869.427 1.508 1.008 1.93 1.752v.002c.425.732.64 1.55.64 2.463 0 1.028-.293 1.938-.88 2.744-.568.802-1.412 1.37-2.549 1.71l-.162.05 3.627 6.222h-4.049l-3.296-5.982h-1.137v5.982h-3.596zm3.596 2.94v4.194h2.525c.728 0 1.294-.18 1.672-.557l.002-.002c.389-.374.582-.904.582-1.56 0-.628-.194-1.145-.582-1.517-.378-.378-.945-.557-1.674-.557zm.265.265h2.26c.686 0 1.174.165 1.488.48v.002h.002c.334.32.5.752.5 1.328 0 .607-.167 1.053-.5 1.371l-.002.002c-.314.315-.802.48-1.488.48h-2.26zM289.461 153.988c-1.234 0-2.272.216-3.123.64h-.002c-.868.428-1.507 1.01-1.93 1.753v.002c-.424.732-.636 1.55-.636 2.463 0 1.028.29 1.937.877 2.744.568.801 1.413 1.37 2.55 1.71l.16.05-3.626 6.222h4.048l3.297-5.983h1.137v5.983h3.596v-15.584zm.227 2.941h2.525v4.194h-2.525c-.728 0-1.294-.18-1.672-.557l-.002-.002c-.39-.374-.582-.904-.582-1.56 0-.628.194-1.145.582-1.518.378-.378.945-.556 1.674-.556z" style="fill:#d3323a"/><path d="M289.461 153.722c-1.264 0-2.346.223-3.242.67v-.001c-.908.446-1.593 1.067-2.043 1.859-.448.773-.672 1.642-.672 2.596 0 1.079.31 2.049.928 2.898.577.814 1.441 1.383 2.54 1.742l-3.7 6.352h4.664l3.297-5.984h.715v5.984h4.126v-16.116Zm0 .266h6.348v15.584h-3.596v-5.983h-1.137l-3.297 5.983h-4.049l3.628-6.222-.16-.05c-1.138-.34-1.983-.909-2.551-1.71-.587-.807-.877-1.716-.877-2.744 0-.913.212-1.731.636-2.463v-.002c.423-.744 1.062-1.325 1.93-1.752h.002c.85-.425 1.89-.64 3.123-.64zm.227 2.941c-.73 0-1.296.179-1.674.557-.388.373-.582.89-.582 1.518 0 .656.193 1.186.582 1.56l.002.002c.378.377.944.557 1.672.557h2.525v-4.194zm0 .264h2.26v3.664h-2.26c-.686 0-1.172-.166-1.486-.48h-.002l-.002-.002c-.333-.319-.5-.764-.5-1.371 0-.576.166-1.009.5-1.328h.002l.002-.002c.314-.315.8-.48 1.486-.48z" style="fill:#d3323a"/><circle cx="296.598" cy="161.66" r="16.933" style="fill:none;stroke:#d3323a;stroke-width:1.05833;stroke-dasharray:none;stroke-opacity:1"/></g></svg>
